<svg xmlns="http://www.w3.org/2000/svg" width="56" height="56"><g fill="#455A64"><path d="M6.82 30.503a.933.933 0 0 0 1.318 0l5.596-5.596a.95.95 0 0 0 .062-.068c.009-.01.016-.022.025-.033l.03-.04.024-.04.022-.039c.008-.013.014-.028.02-.042l.02-.04.015-.042.015-.044.011-.043.011-.046c.004-.016.005-.032.008-.049l.006-.041a.942.942 0 0 0 0-.184l-.006-.042c-.003-.016-.004-.032-.008-.048l-.011-.047-.01-.042-.016-.044-.016-.042c-.005-.014-.012-.027-.019-.04l-.02-.043-.022-.037a.389.389 0 0 0-.025-.04l-.03-.041-.024-.033a.935.935 0 0 0-.13-.13c-.01-.009-.022-.017-.033-.025l-.04-.03-.041-.024-.038-.022c-.014-.008-.028-.014-.042-.02l-.04-.02-.042-.015-.045-.015-.042-.011-.046-.011c-.016-.004-.033-.006-.05-.008-.013-.002-.026-.005-.04-.006a.943.943 0 0 0-.092-.005H9.73l4.003-4.003a.933.933 0 1 0-1.319-1.319L6.82 23.589a.95.95 0 0 0-.062.068c-.009.01-.017.022-.025.033l-.03.04-.024.04-.022.038a.336.336 0 0 0-.02.043l-.02.04-.015.042-.015.044a.325.325 0 0 0-.011.042c-.004.016-.009.031-.012.047l-.007.048-.006.042a.942.942 0 0 0 0 .184c.001.014.004.028.006.041l.007.05.012.045.01.043.016.044.015.042.02.04c.006.014.012.029.02.043l.022.037.024.04.03.041.025.033a.935.935 0 0 0 .13.13c.01.009.022.016.033.025l.04.03.04.024.038.022.043.02.04.02.042.015.044.015.043.011.046.011a.401.401 0 0 0 .05.008l.04.006a.93.93 0 0 0 .092.004h3.344L6.82 29.184a.932.932 0 0 0 0 1.319z"/><path d="M34.525 29.855a.933.933 0 0 0-.933.933c0 1.893-.397 3.038-1.224 4.193-.111.154-.685.902-.836 1.12-.288.418-.49.813-.61 1.227h-.211c-.057-.942.026-1.703.23-2.689l.123-.586c.046-.23.08-.421.105-.61.14-1.023.025-1.924-.452-3.026a.933.933 0 0 0-1.711.741c.339.784.41 1.34.315 2.032-.02.145-.047.301-.086.497-.024.12-.122.582-.12.573-.228 1.101-.327 1.997-.272 3.068h-.362c-.358-.546-.49-1.055-.504-1.72-.004-.214 0-.386.019-.81.081-1.914-.1-2.98-1.079-4.512a.933.933 0 0 0-1.572 1.004c.732 1.146.854 1.862.787 3.429-.02.464-.025.66-.02.926.022 1.085.287 1.987.952 2.913V44.8a5.603 5.603 0 0 1-5.596 5.596H18.67a5.603 5.603 0 0 1-5.595-5.596v-1.9c1.03 0 1.865-.835 1.865-1.865v-3.73h3.73c1.03 0 1.866-.835 1.866-1.866V13.056c0-1.03-.836-1.865-1.866-1.865h-.932V2.798A2.798 2.798 0 0 0 14.94 0H5.614a2.798 2.798 0 0 0-2.798 2.798v8.393h-.933c-1.03 0-1.865.835-1.865 1.865V35.44c0 1.03.835 1.865 1.865 1.865h3.73v3.73c0 1.031.836 1.866 1.866 1.866V44.8c0 6.172 5.02 11.192 11.191 11.192h2.798c6.171 0 11.191-5.02 11.191-11.192v-6.552c0-.366.115-.663.408-1.088.118-.17.678-.9.817-1.094 1.045-1.46 1.573-2.98 1.573-5.28a.932.932 0 0 0-.932-.932zM4.68 2.798c0-.515.418-.933.933-.933h9.326c.514 0 .932.418.932.933v8.393H4.682V2.798zM1.883 13.056H18.67V35.44H1.883V13.056zm11.192 24.248v3.73H7.479v-3.73h5.596zm17.72 7.497c0 5.142-4.186 9.326-9.327 9.326H18.67c-5.14 0-9.326-4.184-9.326-9.326V42.9h1.866v1.9c0 4.115 3.345 7.461 7.46 7.461h2.798c4.115 0 7.461-3.346 7.461-7.46v-5.608h1.865V44.8z"/><path d="M44.783.025h-5.595c-6.172 0-11.192 5.02-11.192 11.19v7.449c0 .366-.114.663-.407 1.087-.118.171-.678.901-.817 1.095-1.046 1.46-1.573 2.98-1.573 5.279a.933.933 0 1 0 1.865 0c0-1.893.397-3.039 1.224-4.193.11-.155.685-.902.836-1.121.285-.413.486-.804.605-1.215h.216c.056.937-.027 1.696-.23 2.677.003-.017-.097.455-.123.587a9.87 9.87 0 0 0-.105.61c-.14 1.023-.025 1.923.451 3.025a.933.933 0 0 0 1.712-.74c-.339-.784-.41-1.341-.316-2.032a8.22 8.22 0 0 1 .087-.497 64.7 64.7 0 0 1 .12-.574c.227-1.096.327-1.99.273-3.056h.368c.353.542.483 1.048.497 1.708.004.213 0 .386-.019.81-.081 1.914.1 2.98 1.079 4.512a.933.933 0 1 0 1.572-1.003c-.732-1.146-.854-1.863-.787-3.43.02-.464.025-.661.02-.927-.023-1.084-.288-1.986-.952-2.91v-7.14a5.603 5.603 0 0 1 5.596-5.596h5.595a5.603 5.603 0 0 1 5.596 5.596v43.832c0 .515.417.933.932.933h3.73a.933.933 0 0 0 .933-.933V11.216c0-6.171-5.02-11.191-11.19-11.191zm9.326 54.09h-1.865v-42.9c0-4.114-3.346-7.46-7.46-7.46h-5.597c-4.114 0-7.46 3.346-7.46 7.46v6.516H29.86v-6.515c0-5.141 4.185-9.326 9.326-9.326h5.596c5.141 0 9.326 4.185 9.326 9.326v42.9z"/></g></svg>