<svg xmlns="http://www.w3.org/2000/svg" width="32" height="32"><path fill="#FFF" fill-rule="evenodd" d="M14.71 16.528l2.929.785c1.366.366 1.936 1.495 1.554 2.787-.252.944-.902 1.677-1.77 1.793-.328.051-.76-.03-1.117-.125l-2.799-.75 1.204-4.49zm5.231-4.945c.499.482.617 1.211.417 1.96-.314 1.17-1.215 1.801-2.387 1.487l-2.668-.715 1.055-3.937 2.343.628c.52.14.959.327 1.24.577zm-3.977 12.5l-.61 2.277-1.53-.41.611-2.277-1.594-.428-.61 2.278-1.53-.41.61-2.277-3.058-.82.558-2.082.944.253a.87.87 0 0 0 1.072-.62l2.468-9.207a.87.87 0 0 0-.62-1.073l-.943-.253.558-2.082 3.058.82.61-2.278 1.53.41-.61 2.277 1.594.427.61-2.277 1.53.41-.62 2.31c.772.241 1.364.505 1.913.93 1.227.887 1.83 2.409 1.377 4.101-.384 1.432-1.348 2.429-2.718 2.724 1.544 1.007 1.9 2.671 1.473 4.266-.582 2.04-2.35 3.171-4.116 3.256a6.513 6.513 0 0 1-1.957-.246zM.002 16.002c0 8.824 7.175 16 16 16s16-7.176 16-16c0-8.826-7.175-16-16-16s-16 7.174-16 16z"/></svg>