<svg xmlns="http://www.w3.org/2000/svg" width="32" height="32"><path fill="#FFF" fill-rule="evenodd" d="M15.144 17.101l2.928-.785c1.367-.366 2.424.327 2.74 1.637.254.944.057 1.903-.637 2.438-.257.208-.672.354-1.03.45l-2.798.75-1.203-4.49zm2.058-6.898c.672.168 1.14.74 1.34 1.489.314 1.171-.151 2.168-1.323 2.482l-2.668.715-1.055-3.937 2.343-.628c.52-.14.994-.197 1.363-.121zm2.805 12.813l.61 2.278-1.529.41-.61-2.278-1.594.427.61 2.278-1.53.41-.61-2.278-3.058.82L11.738 23l.944-.252a.87.87 0 0 0 .619-1.073l-2.467-9.208a.87.87 0 0 0-1.073-.62l-.943.254-.558-2.083 3.058-.82-.61-2.277 1.529-.41.61 2.278 1.595-.427-.61-2.278 1.529-.41.619 2.31c.79-.176 1.433-.244 2.121-.15 1.506.155 2.79 1.171 3.243 2.863.384 1.432.047 2.777-.991 3.718 1.84.1 2.98 1.363 3.408 2.958.516 2.058-.45 3.921-1.936 4.878a6.513 6.513 0 0 1-1.818.765zM.545 20.141c2.284 8.524 11.071 13.598 19.596 11.314 8.525-2.284 13.598-11.072 11.314-19.596C29.17 3.334 20.383-1.74 11.859.545 3.334 2.83-1.74 11.616.545 20.141z"/></svg>