<svg xmlns="http://www.w3.org/2000/svg" width="32" height="32"><g fill="none" fill-rule="evenodd"><circle cx="16" cy="16" r="14.222" fill="#FFF"/><circle cx="16" cy="16" r="10.667" fill="#FFF"/><circle cx="16" cy="16" r="9.278" stroke="#588AED"/><circle cx="16" cy="16" r="15.5" stroke="#FFF"/><path fill="#588AED" d="M15.078 16.638h2.135c.997 0 1.59.664 1.566 1.613 0 .688-.308 1.305-.878 1.543-.213.095-.522.118-.783.118h-2.04v-3.274zm2.657-4.765c.427.237.641.712.641 1.257 0 .855-.498 1.448-1.352 1.448h-1.946v-2.871h1.708c.38 0 .712.047.95.166zm-.556 9.663v1.661h-1.115v-1.66h-1.163v1.66h-1.115v-1.66h-2.23v-1.52h.688a.613.613 0 0 0 .617-.616v-6.716a.613.613 0 0 0-.617-.616h-.688v-1.52h2.23V8.89h1.115v1.66h1.163V8.89h1.115v1.685c.57.023 1.02.095 1.471.284.997.38 1.685 1.305 1.685 2.54 0 1.043-.474 1.898-1.352 2.348 1.234.404 1.78 1.472 1.78 2.634-.024 1.495-1.021 2.587-2.207 2.966-.475.143-.902.19-1.377.19z"/></g></svg>