<svg xmlns="http://www.w3.org/2000/svg" width="32" height="32"><g fill="none" fill-rule="evenodd"><path fill="#FFF" d="M14.459.249c3.372-.323 6.846.458 9.74 2.217a15.929 15.929 0 0 1 6.253 6.997c1.393 3.016 1.763 6.474 1.109 9.725-.652 3.26-2.384 6.291-4.851 8.53a15.902 15.902 0 0 1-9.024 4.07c-2.157.2-4.36.039-6.43-.616a15.942 15.942 0 0 1-8.663-6.552 15.693 15.693 0 0 1-2.534-8.733c.009-3.516 1.262-7.01 3.474-9.748C6.18 2.814 10.213.63 14.459.25"/><path fill="#FFF" d="M15.652.67c2.829-.048 5.675.67 8.114 2.106 2.63 1.538 4.794 3.87 6.103 6.616 1.413 2.865 1.83 6.183 1.28 9.32-.72 4.204-3.314 8.038-6.943 10.298a15.272 15.272 0 0 1-8.492 2.37c-2.91-.02-5.8-.924-8.225-2.521-2.484-1.632-4.496-3.982-5.667-6.71a15.309 15.309 0 0 1-.816-9.84c.803-3.293 2.77-6.27 5.441-8.36 2.6-2.057 5.89-3.211 9.205-3.279"/><path fill="#5786ED" d="M9.794 2.304c2.657-1.2 5.669-1.58 8.548-1.127a15.085 15.085 0 0 1 8.047 3.974c2.686 2.536 4.38 6.084 4.634 9.763.336 4.195-1.208 8.498-4.156 11.514-.042-.875-.055-1.75-.071-2.626-.007-.65-.151-1.284-.207-1.928.012-.225.038-.45.046-.674.031-.608-.292-1.174-.21-1.787.081-.86-.371-1.64-.595-2.446-.223-.567-.21-1.19-.426-1.758-.155-2.193-1.008-4.407-2.68-5.897.055-.076.162-.23.216-.307.067.143.142.281.217.419.388-.438.448-1.04.563-1.589.217-.977.067-1.987-.1-2.96-.13-.498-.234-1.075-.653-1.42-.447-.262-1.221-.266-1.481.254l-.035.12a2.233 2.233 0 0 1-.803.825c-.6.368-.928 1.067-1.57 1.39-.4.13-.807-.091-1.215-.046-.768.08-1.548.12-2.294.333-.707-.112-1.416-.223-2.118-.364l.011-.203c-.32-.31-.613-.663-.73-1.102-.214-.817-.72-1.603-1.482-2.004a13.093 13.093 0 0 0-.324-.123 9.333 9.333 0 0 0-.197.223l-.1.23c-.17.377-.131.799-.143 1.202-.011 1.041-.12 2.107-.562 3.064-.711-.002-1.421-.007-2.132.001-.141.319-.091.672-.099 1.01-1.143 1.054-1.6 2.607-1.813 4.097-.002.115.003.231.013.346l.007.181c-.502.66-.59 1.522-.72 2.315.184-.011.368-.022.553-.03-.17.019-.34.035-.508.051a8.398 8.398 0 0 0-.08.544c.166-.06.33-.123.495-.184l.09.004c-.197.08-.39.174-.582.268.005.115.014.346.017.46.224-.114.45-.223.674-.338l-.081.092c-.19.123-.434.19-.584.365.004.416.063.83.12 1.242.146.936.476 1.847.958 2.664-.015.597-.144 1.198-.498 1.691.1.187.265.36.275.578-.062.372-.363.686-.3 1.08.08.957-.272 1.87-.688 2.713a14.944 14.944 0 0 1-4.022-8.242c-.41-2.872.02-5.864 1.263-8.49a15.114 15.114 0 0 1 7.512-7.368"/><path fill="#FFF" d="M10.73 2.758c.064-.074.129-.15.196-.223.108.04.216.08.324.123.181.569.463 1.137.405 1.75-.02.41-.11.85.097 1.232.09.216.306.33.49.454-.111.085-.221.17-.338.248-.48.19-.863.546-1.223.905h-.418c.761-.91 1.097-2.111 1.094-3.284.015-.486-.359-.842-.627-1.205"/><path fill="#FFF" d="M11.25 2.658c.762.4 1.268 1.187 1.482 2.004.117.44.41.792.73 1.102l-.01.203c-.399-.13-.888-.212-1.21.127-.184-.125-.4-.238-.49-.454-.207-.382-.117-.822-.097-1.231.058-.614-.224-1.182-.405-1.751m-.52.1c.268.363.642.719.627 1.205.003 1.173-.333 2.373-1.094 3.285l-.208.003c.33-.503.657-1.048.692-1.664.062-.87-.207-1.728-.118-2.6l.1-.229"/><path fill="#FFF" d="M10.486 4.19c.012-.403-.026-.825.143-1.203-.089.872.18 1.73.118 2.6-.035.616-.362 1.161-.692 1.664l-.13.003c.441-.957.55-2.023.56-3.064m11-.481c.26-.52 1.035-.516 1.482-.254.42.345.523.922.652 1.42.168.973.318 1.983.101 2.96-.115.548-.175 1.15-.563 1.589-.075-.138-.15-.276-.217-.419-.074-.214-.136-.433-.205-.65.267-.595.403-1.245.474-1.89.064-.577-.32-1.052-.705-1.431-.203-.535-.616-.934-1.018-1.325"/><path fill="#FFF" d="M21.45 3.83c.01-.03.027-.09.036-.121.402.39.815.79 1.018 1.325-.01.157-.047.328-.212.389-.471.237-.999.41-1.344.831-.236.298-.696.468-.733.883l.2.147-.186.242c.06.062.121.123.182.183.251-.26.637-.283.963-.398-.052.125-.103.252-.154.379l.418-.089a4.767 4.767 0 0 1-.567.54 3.741 3.741 0 0 0-.091-.05c-.248-.122-.49-.286-.775-.297l-.055-.167a1.747 1.747 0 0 1-.46-.088c.04-.103.124-.307.165-.41l-.345.166c.234-.382.461-.769.69-1.155l.065-.112c.314-.581.777-1.066 1.093-1.643.111-.167.107-.365.093-.556"/><path fill="#FFF" d="M21.45 3.83c.015.19.02.388-.092.555-.316.577-.779 1.062-1.093 1.643-.005-.488.059-.986.383-1.374.338-.196.608-.488.803-.825"/><path fill="#FFF" d="M19.078 6.044c.642-.323.97-1.022 1.57-1.39-.324.388-.388.886-.383 1.374l-.065.112a2.609 2.609 0 0 0-.033-.559c-.303.624-.637 1.238-1.096 1.764a3.132 3.132 0 0 0-.816-.097 4.85 4.85 0 0 1 .554-.807c-1.066-.25-2.162-.008-3.24-.11.746-.213 1.526-.253 2.294-.333.408-.045.815.176 1.215.046m3.426-1.01c.384.38.77.854.705 1.43-.07.646-.207 1.296-.474 1.891-.197.16-.402.312-.604.467l-.29-.209-.048-.032c.31-.667.813-1.293.846-2.05a6.571 6.571 0 0 0-1.75.297c-.233.058-.352.271-.474.456l-.2-.147c.037-.415.497-.585.733-.883.345-.421.873-.594 1.344-.831.165-.06.201-.232.212-.389"/><path fill="#FFF" d="M20.167 5.581c.027.186.046.372.033.56-.229.385-.456.772-.69 1.154.086-.04.259-.124.345-.165l-.165.41c-.206-.07-.41-.14-.62-.195.46-.526.794-1.14 1.097-1.764m-7.925.513c.322-.34.811-.257 1.21-.127.701.14 1.41.252 2.117.364 1.078.102 2.174-.14 3.24.11a4.836 4.836 0 0 0-.554.807c-1.744-.002-3.49.007-5.233 0-.073-.246-.083-.554-.311-.719-.233-.167-.535-.157-.807-.187.117-.077.227-.163.338-.248"/><path fill="#FFF" d="M10.68 7.247c.36-.359.744-.714 1.224-.905.272.03.574.02.807.187.228.165.238.473.31.72-.78-.002-1.56-.001-2.34-.002m10.207-.419a6.57 6.57 0 0 1 1.751-.298c-.033.758-.535 1.384-.846 2.05a6.713 6.713 0 0 0-.722-.44c.203-.165.395-.343.567-.539-.14.028-.28.059-.418.089l.154-.38c-.326.115-.712.138-.963.4l-.182-.184.186-.242c.122-.185.24-.398.473-.456"/><path fill="#FFF" d="M7.792 7.255c.71-.008 1.421-.003 2.132 0l.131-.004.208-.003.418-.001c.78 0 1.56 0 2.34.002 1.745.006 3.49-.003 5.234-.001.275 0 .55.026.815.097.21.056.414.125.62.194.148.05.303.08.46.088l.055.167c.285.01.527.175.775.298-.161.414-.489.72-.792 1.03.266.148.53.302.773.487.31-.316.597-.656.88-.996.096.07.194.139.29.21.205.153.405.316.594.489 1.67 1.49 2.524 3.704 2.68 5.897.02.287.024.575.033.862-.006 1.142-.11 2.29-.41 3.394a8.917 8.917 0 0 1-.906 2.197c-.283.434-.587.86-.952 1.23a6.13 6.13 0 0 1-.763.689 59.97 59.97 0 0 0-.37-.19c-.212.117-.408.303-.662.308-.342.023-.658.171-.995.23.327-.486.994-.85.886-1.522l-.55.026c.063-.235.122-.472.179-.71l-.24-.16c.205-.228.415-.456.609-.697-.414.095-.787.298-1.178.452a23.079 23.079 0 0 0 1.963-3.442c.316-.745.737-1.483.747-2.313.028-.53-.313-.988-.329-1.513-.047-.605-.046-1.305-.55-1.735-.869.177-1.749.012-2.616-.09-.233-.033-.467.007-.696.045-.04-.049-.083-.094-.125-.14-.27-.27-.555-.551-.924-.678-.34-.055-.684-.01-1.026-.007l-.047-.012c-.377-.164-.77-.377-1.196-.302-.355.037-.566.358-.849.535-.291.184-.58.377-.802.645.292.497.815.769 1.357.908-.018.324-.043.647-.072.97-.333.11-.644.276-.93.477-.152-.328-.224-.687-.37-1.016-.158-.208-.375-.361-.572-.53l-.136.422-.3.159c-.014-.245-.021-.491-.066-.733-.098-.439-.412-.786-.578-1.196.027-.42.155-.83.166-1.253-.211.085-.425.162-.632.255-.283.111-.422.408-.665.574-.236.104-.493.143-.74.208l.031-.09c.22-.193.284-.477.34-.75l-.42.203c-.175-.245.092-.41.244-.57-.225-.208-.528-.37-.84-.257-.524.182-.755.76-.808 1.27-.214.006-.429.015-.643.011l.251-.462c-.105-.233-.342-.32-.567-.397.011-.581.002-1.16 0-1.74.003-.17.007-.34.007-.51.008-.337-.042-.69.1-1.009"/><path fill="#FFF" d="M20.98 8.092l.091.049c.25.132.49.277.722.44l.047.032c-.282.34-.569.68-.879.996a6.215 6.215 0 0 0-.773-.487c.303-.31.63-.616.792-1.03m-15.1 4.27c.213-1.49.67-3.043 1.813-4.098 0 .17-.004.34-.006.51-.758.79-1.195 1.843-1.402 2.904-.08.36-.242.695-.392 1.03a3.67 3.67 0 0 1-.013-.346m16.25-3.54c.203-.155.408-.306.605-.467.07.217.131.436.205.65-.054.077-.16.231-.215.307a7.774 7.774 0 0 0-.594-.49"/><path fill="#FFF" d="M6.285 11.678c.207-1.061.644-2.115 1.402-2.905 0 .58.01 1.16-.001 1.74-.36.305-.52.806-.982.989a2.265 2.265 0 0 1-.375.879c-.136.175-.284.34-.429.508l-.007-.181c.15-.335.312-.67.392-1.03m3.167-1.586c.313-.112.616.049.841.257-.152.16-.419.325-.243.57l.418-.203c-.055.273-.118.557-.339.75a3.466 3.466 0 0 0-.86-.015c.017-.17.029-.342.071-.508.13-.141.319-.202.484-.287-.1-.101-.18-.231-.31-.294-.313.083-.625.32-.672.656.008.153.033.306.055.46a13.032 13.032 0 0 0-.205-.007l-.064-.003.017-.106c.053-.51.284-1.088.807-1.27m12.952.21c.264-.09.53-.176.8-.252.2.402.133.839-.071 1.223l.296.003c.017.338.013.811-.386.922-.221-.485-.749-.766-.884-1.299.016-.218.15-.405.245-.597"/><path fill="#FFF" d="M8.842 11.018c.047-.336.359-.573.671-.656.13.063.211.193.311.294-.165.085-.353.146-.484.287-.042.166-.054.338-.072.508l-.37.027c-.023-.154-.048-.307-.056-.46m2.661-.244c.207-.093.421-.17.632-.255-.01.423-.14.832-.166 1.253.166.41.48.757.578 1.196.045.242.052.488.066.733l.3-.159.136-.421c.197.168.414.32.571.529.147.33.219.688.371 1.016.286-.201.597-.366.93-.477.029-.323.054-.646.072-.97l.003-.138c-.192-.16-.495-.264-.52-.55-.025-.364.206-.68.464-.913.072.015.144.032.218.043.14-.01.21-.093.205-.249.188-.008.376.001.565.012-.19.262-.433.506-.767.561-.002.176.003.351.013.527-.011.177-.03.353-.04.53l-.004.121c.002.417.002.836.006 1.253.002 2.086-.008 4.17.004 6.256l.041.162c.943-.063 2.017.232 2.835-.38 1.147-.82 1.618-2.255 1.737-3.602.133-1.59-.152-3.291-1.148-4.582.23-.038.463-.078.696-.044.867.1 1.747.266 2.617.089.503.43.502 1.13.549 1.735.016.525.357.983.329 1.513-.01.83-.431 1.568-.747 2.313a23.079 23.079 0 0 1-1.963 3.442c.391-.154.764-.357 1.178-.452-.194.241-.404.469-.61.697l.241.16a32.01 32.01 0 0 1-.178.71l.549-.026c.108.672-.56 1.036-.886 1.522.337-.059.653-.207.995-.23.254-.005.45-.19.661-.308l.371.19a7.451 7.451 0 0 1-4.621 1.494c-1.436-.004-2.872.007-4.308-.005-.623.002-1.246 0-1.868.002-.457 0-.915 0-1.372.002l-.402-.002c-.61-.002-1.221.022-1.83-.004-.215.017-.3-.22-.302-.394-.027-.482-.002-.964-.01-1.446.006-.55.009-1.102-.005-1.653-.002-.24.036-.477.092-.71.768-.078 1.54.022 2.31-.031l.001-.786c0-.201 0-.403.002-.603.047.175.105.348.161.521.364-.067.767-.16 1.041.161.641-.565 1.585-.538 2.351-.851.167-.432.555-.78.504-1.277a5.103 5.103 0 0 1-.124-.028c-.802-.251-1.551.266-2.335.325a2.028 2.028 0 0 1-1.359-.702c.029-.115.06-.23.09-.344l-.23-.191a7.395 7.395 0 0 1 0-.695.944.944 0 0 1 .505-.612c.08-.41.147-.822.219-1.232a1.852 1.852 0 0 0-.826-.577v-.031a56.72 56.72 0 0 1 0-.825c.005-.474 0-.949-.002-1.424l.008-.107c.248-.065.505-.104.741-.208.243-.166.382-.463.665-.574m-4.799.728c.463-.183.623-.684.982-.988.004.273.01.546.017.819l.3.04c.213.004.428-.005.642-.01l-.017.105c-.293-.005-.586-.006-.878-.012a3.085 3.085 0 0 0-.07.496c-.571.22-.914.743-1.38 1.106.004-.226.01-.452.029-.677.187-.264.313-.563.375-.879"/><path fill="#FFF" d="M7.686 10.514c.225.077.462.164.567.397l-.25.462-.3-.04a68.587 68.587 0 0 1-.017-.82m6.752 1.153c.283-.177.494-.498.849-.535.426-.075.819.138 1.196.302-.186-.005-.37-.001-.555-.009a5.776 5.776 0 0 0-.565-.012c-.153.009-.222.092-.205.25-.074-.012-.146-.029-.218-.044-.258.233-.489.55-.465.913.026.286.329.39.521.55l-.003.138c-.542-.14-1.065-.411-1.357-.908.221-.268.51-.461.802-.645m-6.688-.21c.292.006.585.007.878.012l.064.003c.116.23.277.436.507.565.07.055.14.113.209.171-.229.35-.564.626-.728 1.016-.163.066-.324.136-.489.196l-.139-.09c.034-.058.1-.171.132-.229l-.373-.088a8.095 8.095 0 0 1-.13-1.06c.008-.167.033-.332.069-.496"/><path fill="#FFF" d="M8.692 11.47l.205.008c-.026.438.477.387.77.342a12.73 12.73 0 0 0-.399-.369c.287-.03.576-.026.861.015l-.032.09-.008.107c-.326.067-.543.407-.89.373-.23-.129-.39-.335-.507-.565"/><path fill="#FFF" d="M8.897 11.485c.093-.01.279-.026.371-.034.136.15.268.305.4.463-.294.058-.797.122-.77-.429m6.264.427c-.042-.315.123-.483.493-.5.01.313-.154.478-.493.5"/><path fill="#FFF" d="M15.928 11.424c.184.008.37.004.555.009l.047.012c.243.155.482.321.681.533a2.22 2.22 0 0 1-1.142 1.11c-.304.09-.627.06-.939.075l.003-.121c.235-.002.47-.011.706-.024-.259-.117-.508-.263-.665-.506a8.507 8.507 0 0 1-.013-.527c.334-.055.576-.299.767-.561"/><path fill="#FFF" d="M16.53 11.445c.342-.004.687-.048 1.026.007.369.127.654.409.924.678-.348.36-.576.806-.874 1.201-.295.404-.826.474-1.241.701-.382.206-.794.35-1.23.384-.003-.417-.003-.836-.005-1.253.312-.015.635.015.939-.076.505-.207.913-.62 1.142-1.11a3.516 3.516 0 0 0-.68-.532m-7.332.591c.347.034.564-.306.89-.373.002.475.007.95.002 1.424-.261.064-.534.203-.803.102a.754.754 0 0 0-.608.034c.164-.39.5-.667.728-1.016a6.246 6.246 0 0 0-.21-.17m6.854-.338c1.085.097-.563 1.075 0 0m-9.753 1.359c.467-.363.81-.885 1.381-1.106.019.356.065.71.13 1.06l.374.088-.132.229c-.369.278-.847.485-1.029.942-.207.559-.186 1.166-.263 1.75-.134-.133-.334-.242-.322-.458-.029-.439.088-.87.114-1.305-.204.294-.326.632-.448.966-.056.21-.303.256-.464.361-.165.06-.33.124-.495.184a7.75 7.75 0 0 1 .08-.544c.168-.016.338-.032.508-.05-.185.007-.37.018-.553.029.13-.793.218-1.655.72-2.315.145-.168.293-.333.429-.508-.02.225-.025.45-.03.677m9.778-.886c1.068-.49.109 1.118 0 0"/><path fill="#FFF" d="M18.48 12.13c.042.046.085.091.125.14.997 1.29 1.281 2.992 1.148 4.582-.171.092-.345.18-.506.289-.277.188-.428.51-.704.698-.484.24-1.093.183-1.524.537-.246.278-.414.62-.7.86.152.156.318.3.46.467.073.129.046.294.12.424.138.111.296.195.447.289a4.231 4.231 0 0 1-1.181-.008c-.367-.07-.698.138-1.025.264-.012-2.085-.002-4.17-.004-6.256a3.1 3.1 0 0 0 1.229-.384c.415-.227.946-.297 1.241-.7.298-.396.526-.843.874-1.202m-3.306.382c.157.243.407.389.665.506-.236.013-.47.022-.706.024.011-.177.03-.353.04-.53m-6.493.71a.754.754 0 0 1 .608-.033c.269.1.542-.038.803-.102-.002.276-.002.55 0 .825-.52-.182-1.06-.325-1.616-.295a18.058 18.058 0 0 0-.284-.198c.165-.06.326-.13.489-.196"/><path fill="#FFF" d="M7.023 14.27c.182-.456.66-.663 1.03-.941l.138.09c.095.065.19.131.284.198-.496.016-.985.335-1.044.855-.086.661-.316 1.295-.378 1.958-.065.477.377.789.515 1.205.042.227.057.457.114.68-.066.29-.124.581-.17.874l-.291.009c-.102.236-.225.466-.302.713.088.475.244.938.354 1.41l-.088.214c-.237-.257-.372-.615-.685-.793-.08-.136-.168-.266-.248-.4a7.582 7.582 0 0 1-.959-2.665c.045-.276.098-.551.144-.826.2.395.178.877.446 1.238a6.82 6.82 0 0 1 .55-.124l.09.108c.192-.276.373-.573.407-.916a5.645 5.645 0 0 0-.347.527c-.152-.238-.332-.466-.42-.737-.05-.313-.039-.63-.064-.945a13.13 13.13 0 0 0-.341.068l.081-.09c.101-.113.198-.23.296-.344-.135-.017-.27-.04-.406-.047l-.089-.004c.161-.105.408-.15.464-.36.122-.335.244-.673.448-.967-.026.435-.143.866-.114 1.305-.012.216.188.325.322.458.077-.584.056-1.191.263-1.75"/><path fill="#FFF" d="M7.43 14.472c.06-.52.55-.839 1.045-.855.556-.03 1.097.113 1.616.295v.031c.003.485-.003.968.002 1.452l-.001.09c-.163.158-.318.326-.474.492-.266.226-.606.316-.937.4l-.061.282-.069.313c-.466-.431-.74-1.01-1.05-1.552-.172-.288-.106-.635-.07-.948"/><path fill="#FFF" d="M10.09 13.943c.323.118.612.307.827.577-.072.41-.139.822-.22 1.232a.944.944 0 0 0-.504.612c.018-.327-.036-.65-.1-.969-.005-.484.001-.967-.002-1.452m-6.507.336c.54-.122 1.09-.003 1.61.455-.477-.29-.963-.514-1.45-.402-.18.062-.16-.053-.16-.053m3.47 2.151c.061-.663.291-1.297.377-1.958-.036.313-.102.66.07.948.31.542.584 1.12 1.05 1.552l.069-.313c.17.007.342.017.514.028.239.193.497.366.703.597.223-.423-.091-.837-.049-1.271l-.17-.036c.156-.166.31-.334.474-.492-.002.738.001 1.477.001 2.215-.838-.26-1.732-.562-2.608-.283.82.373 1.743.402 2.607.628 0 .244-.002.487-.004.731-.4.179-.763.426-1.151.627-.405-.271-.7-.669-1.101-.944l-.154-.143c-.057-.224-.072-.454-.114-.68-.138-.417-.58-.73-.515-1.206m-3.328-.683c.417-.271.89-.393 1.352-.5a.346.346 0 0 1-.243.225c-.361.128-.726.276-1.109.275m21.68-.538c.216.568.202 1.19.425 1.758.224.806.676 1.586.596 2.446-.111-.18-.214-.371-.206-.59.003-.464-.247-.87-.36-1.308a65.644 65.644 0 0 0-.422-1.443c-.009-.288-.013-.576-.034-.863"/><path fill="#FFF" d="M10.093 15.395c.064.319.118.642.1.97-.013.23-.01.462 0 .694l.23.191-.09.344a2 2 0 0 0-.046.516c1.186.416 2.67.706 3.74-.139.03.008.094.022.124.028.051.498-.337.845-.504 1.277-.766.313-1.71.286-2.35.851-.275-.32-.678-.228-1.042-.161-.056-.173-.114-.346-.16-.521-.01-.223-.008-.446-.007-.669.002-.244.004-.487.004-.731l.001-.345c0-.738-.003-1.477-.001-2.215l.001-.09zm-4.364.194c.136.008.271.03.406.047-.098.115-.194.23-.296.343-.224.115-.45.224-.674.338a65.106 65.106 0 0 0-.016-.46c.191-.094.384-.187.58-.268m.029.481c.114-.024.227-.046.341-.068.025.314.014.632.063.945.089.271.27.498.421.737a5.35 5.35 0 0 0-.15.28 6.775 6.775 0 0 0-.55.125c-.268-.36-.246-.843-.446-1.238-.046.275-.1.55-.144.826-.056-.411-.115-.825-.12-1.241.15-.176.394-.242.585-.366m2.923.307c.33-.084.671-.174.937-.4l.17.036c-.042.434.272.849.05 1.271-.207-.23-.465-.404-.704-.597-.172-.01-.343-.02-.514-.028l.061-.282m16.757-.305c.146.478.286.96.421 1.443.114.439.363.844.361 1.309-.008.218.095.41.206.59-.083.612.24 1.178.209 1.786-.008.224-.034.449-.046.674a2.848 2.848 0 0 0-.282-.39c-.118.365-.04.816-.34 1.1-.13-.183-.195-.489-.461-.516-.387-.062-.747.127-1.006.399-.34.363-.867.38-1.33.425.365-.37.669-.796.952-1.23.252.079.422-.145.61-.267.186-.157.43-.21.638-.33.176-.278.306-.588.38-.907-.06-.21-.159-.407-.206-.62l-.324.078a14.098 14.098 0 0 0-.192-.15c.3-1.105.404-2.253.41-3.394m-20.742.483c.169-.116.171.213.034.265-.119.09-.261.276-.402.187-.005-.259.24-.357.368-.452m14.55.586c.162-.11.336-.197.507-.29-.119 1.348-.59 2.782-1.737 3.603-.818.612-1.891.317-2.835.38a8.786 8.786 0 0 1-.041-.161c.327-.127.658-.334 1.025-.265.392.052.79.066 1.181.008-.151-.094-.309-.178-.447-.289-.074-.13-.047-.295-.12-.424-.142-.167-.308-.311-.46-.466.286-.242.454-.583.7-.86.43-.355 1.04-.298 1.524-.538.276-.189.427-.51.704-.698"/><path fill="#FFF" d="M6.584 17.684a5.78 5.78 0 0 1 .348-.527c-.035.343-.216.64-.408.916l-.092-.108a4.74 4.74 0 0 1 .152-.281m.901-.267c.876-.28 1.77.023 2.608.283l-.001.345c-.864-.226-1.787-.255-2.607-.628m2.802.693a2 2 0 0 1 .046-.516c.336.402.838.653 1.36.702.783-.06 1.532-.576 2.334-.325-1.07.845-2.554.555-3.74.139m-2.605.206l.154.143c.039.527.359.97.607 1.42.2.373.541.644.89.875.245.068.504.06.758.08-.77.053-1.542-.047-2.31.031-.056.233-.094.47-.092.71l-.416-.253c-.11-.473-.266-.936-.354-1.411.077-.247.2-.477.302-.713.097-.004.195-.007.292-.009.045-.293.103-.584.17-.873"/><path fill="#FFF" d="M7.836 18.459c.401.275.696.673 1.1.944.114.1.218.21.327.315.238.188.543.25.829.33l-.001.786c-.254-.02-.513-.012-.758-.08-.349-.231-.689-.502-.89-.875-.248-.45-.568-.893-.607-1.42"/><path fill="#FFF" d="M8.937 19.403c.388-.201.751-.448 1.15-.627 0 .223-.003.446.007.669-.29.045-.626.02-.831.273-.109-.105-.213-.215-.326-.315"/><path fill="#FFF" d="M9.263 19.718c.205-.253.542-.228.831-.273-.002.2-.002.402-.002.603-.286-.08-.59-.142-.829-.33m15.765-.253l.193.151.323-.078c.048.213.147.41.206.62-.074.32-.204.63-.38.907-.208.12-.452.173-.638.33-.188.122-.358.346-.61.267a8.92 8.92 0 0 0 .906-2.197m-18.776.877c.08.134.167.264.248.4.23.886.545 1.815 1.194 2.486.008.482-.017.964.01 1.446.001.174.087.41.301.393.61.027 1.221.003 1.831.005-.237.312-.064.682-.057 1.03.006.41.223.773.286 1.17-.172.434-.46.808-.687 1.212-.227.034-.465-.056-.684.007-.13.177-.201.429-.448.476-1.166-.721-2.264-1.563-3.205-2.563.416-.842.769-1.756.688-2.713-.063-.394.238-.708.3-1.08-.01-.219-.176-.391-.275-.578.354-.493.483-1.094.498-1.691"/><path fill="#FFF" d="M6.5 20.742c.313.178.448.536.685.793l.088-.213.416.253c.014.55.01 1.102.005 1.653-.65-.671-.965-1.6-1.194-2.486m19.807.742c.104.123.2.251.282.39.056.644.2 1.279.207 1.928.016.875.03 1.751.07 2.626a14.434 14.434 0 0 1-3.348 2.62c-.469-.335-1.009-.076-1.436.19.08-.156.198-.283.33-.394.263-.218.365-.569.64-.776.282-.253.66-.398.884-.714.225-.484.717-.748 1.013-1.18.276-.396.73-.76.688-1.288-.02-.455.073-.9.126-1.347.016-.327.066-.656.205-.954.3-.285.22-.736.34-1.1"/><path fill="#FFF" d="M24.5 22.467c.26-.272.62-.46 1.006-.399.266.027.331.333.462.517-.14.298-.19.627-.205.954-.053.447-.145.892-.126 1.346.043.53-.412.893-.688 1.289-.296.432-.788.696-1.013 1.18l-.474.005c.398-.604.647-1.286.962-1.932.073-.106.042-.223.004-.333-.075-.187.02-.38.01-.57-.032-.197-.115-.38-.18-.566-.336-.062-.675-.147-1.019-.128-.427.077-.723.433-1.108.603-.184.078-.392.097-.563.205-.341.29-.423.795-.819 1.035-.386.263-.727.582-1.089.875-.213.198-.524.05-.781.093-.226.115-.385.325-.6.458-.277.093-.605.054-.836.26-.376.325-.93.232-1.328.522-.45.228-.653.734-1.084.987-.324.193-.58.473-.838.744l-.207-.255c-.36.207-.652.54-1.072.627-.15-.178-.296-.395-.555-.405a8.24 8.24 0 0 0 .123-.262c-.09-.114-.19-.228-.352-.204-.394-.048-.79.035-1.184.006a1.755 1.755 0 0 1-.656-.613c.302-.359.443-.813.695-1.2.15-.209.393-.043.582.003.078-.18.158-.358.236-.537l.32.04c.257-.233.407-.545.506-.871l.515-.154c-.003-.284.128-.528.334-.717 1.436.012 2.872 0 4.308.005 1.65.037 3.307-.5 4.621-1.494a6.13 6.13 0 0 0 .763-.69c.463-.045.99-.061 1.33-.424"/><path fill="#FFF" d="M22.13 24.433c.386-.17.682-.526 1.11-.603.343-.02.682.066 1.018.128.065.186.148.37.18.566.01.19-.085.383-.01.57.038.11.07.227-.004.333-.315.646-.564 1.328-.962 1.932l.474-.005c-.223.316-.602.46-.885.714-.274.207-.376.558-.638.776a1.281 1.281 0 0 0-.331.394c-.563.372-1.227.541-1.827.841l-.012-.33c-.433.096-.868.18-1.293.302-.366.1-.59.432-.913.606-.258.094-.556.117-.747.338a15.756 15.756 0 0 1-5.882-.615c.213-.067.425-.138.634-.218.028-.231.155-.422.317-.584.26.011.405.228.555.406.42-.088.713-.42 1.072-.627l.207.255c.258-.27.514-.551.838-.744.431-.253.633-.759 1.084-.988.398-.289.952-.196 1.328-.52.23-.207.56-.167.837-.26.214-.134.373-.344.599-.459.257-.042.568.105.781-.093.362-.293.703-.612 1.09-.875.395-.24.477-.745.818-1.035.171-.108.379-.127.563-.205m-12.295.639l.402.002c.31.363.71.766 1.222.766.403-.04.203-.517.15-.768.622-.001 1.245 0 1.868-.002-.206.19-.337.433-.334.717l-.515.154c-.099.326-.25.638-.506.871l-.32-.04-.236.537c-.19-.046-.432-.212-.582-.004-.252.388-.393.842-.695 1.2-.054-.109-.108-.218-.159-.329a12.92 12.92 0 0 1-.753.308c.228-.404.515-.778.687-1.211-.063-.398-.28-.761-.286-1.17-.007-.348-.18-.72.057-1.031"/><path fill="#FFF" d="M10.238 25.074c.457-.002.915-.002 1.372-.002.053.251.253.728-.15.768-.512 0-.912-.403-1.222-.766m-.86 3.41c.255-.093.504-.2.753-.308.051.11.105.22.159.33.161.256.388.471.656.613.394.03.79-.054 1.184-.006.162-.024.263.09.352.204-.039.088-.08.175-.123.262-.162.161-.29.352-.317.583-.21.08-.421.151-.634.218a17.204 17.204 0 0 1-3.162-1.413c.247-.047.319-.299.448-.476.219-.063.457.027.684-.007m12.704.754c.427-.266.967-.525 1.436-.19-1.894 1.097-4.04 1.793-6.228 1.947.191-.221.49-.244.747-.338.323-.174.547-.506.913-.606.425-.122.86-.206 1.293-.302l.012.33c.6-.3 1.264-.469 1.827-.84"/><path fill="#5786ED" d="M18.347 25.105H7.72v-4.247h2.41v-9.394H7.707V7.22h10.64c1.79 0 7.076 1.962 7.076 8.943 0 6.98-4.393 8.942-7.076 8.942zM15.22 11.453v9.393h2.027c.894 0 2.564-1.648 2.564-4.683 0-3.036-1.574-4.71-2.564-4.71H15.22z" opacity=".8"/></g></svg>