<svg xmlns="http://www.w3.org/2000/svg" width="310" height="310"><path d="M4 4v2H2V4H0V2h2V0h2v2h2v2H4zm16 0v2h-2V4h-2V2h2V0h2v2h2v2h-2zM4 20v2H2v-2H0v-2h2v-2h2v2h2v2H4zm16 0v2h-2v-2h-2v-2h2v-2h2v2h2v2h-2zM4 36v2H2v-2H0v-2h2v-2h2v2h2v2H4zm16 0v2h-2v-2h-2v-2h2v-2h2v2h2v2h-2zM4 52v2H2v-2H0v-2h2v-2h2v2h2v2H4zm16 0v2h-2v-2h-2v-2h2v-2h2v2h2v2h-2zM4 68v2H2v-2H0v-2h2v-2h2v2h2v2H4zm16 0v2h-2v-2h-2v-2h2v-2h2v2h2v2h-2zM4 84v2H2v-2H0v-2h2v-2h2v2h2v2H4zm16 0v2h-2v-2h-2v-2h2v-2h2v2h2v2h-2zM4 100v2H2v-2H0v-2h2v-2h2v2h2v2H4zm16 0v2h-2v-2h-2v-2h2v-2h2v2h2v2h-2zM4 116v2H2v-2H0v-2h2v-2h2v2h2v2H4zm16 0v2h-2v-2h-2v-2h2v-2h2v2h2v2h-2zM4 132v2H2v-2H0v-2h2v-2h2v2h2v2H4zm16 0v2h-2v-2h-2v-2h2v-2h2v2h2v2h-2zM4 148v2H2v-2H0v-2h2v-2h2v2h2v2H4zm16 0v2h-2v-2h-2v-2h2v-2h2v2h2v2h-2zM36 4v2h-2V4h-2V2h2V0h2v2h2v2h-2zm0 16v2h-2v-2h-2v-2h2v-2h2v2h2v2h-2zm0 16v2h-2v-2h-2v-2h2v-2h2v2h2v2h-2zm0 16v2h-2v-2h-2v-2h2v-2h2v2h2v2h-2zm0 16v2h-2v-2h-2v-2h2v-2h2v2h2v2h-2zm0 16v2h-2v-2h-2v-2h2v-2h2v2h2v2h-2zm0 16v2h-2v-2h-2v-2h2v-2h2v2h2v2h-2zm0 16v2h-2v-2h-2v-2h2v-2h2v2h2v2h-2zm0 16v2h-2v-2h-2v-2h2v-2h2v2h2v2h-2zm0 16v2h-2v-2h-2v-2h2v-2h2v2h2v2h-2zM52 4v2h-2V4h-2V2h2V0h2v2h2v2h-2zm0 16v2h-2v-2h-2v-2h2v-2h2v2h2v2h-2zm0 16v2h-2v-2h-2v-2h2v-2h2v2h2v2h-2zm0 16v2h-2v-2h-2v-2h2v-2h2v2h2v2h-2zm0 16v2h-2v-2h-2v-2h2v-2h2v2h2v2h-2zm0 16v2h-2v-2h-2v-2h2v-2h2v2h2v2h-2zm0 16v2h-2v-2h-2v-2h2v-2h2v2h2v2h-2zm0 16v2h-2v-2h-2v-2h2v-2h2v2h2v2h-2zm0 16v2h-2v-2h-2v-2h2v-2h2v2h2v2h-2zm0 16v2h-2v-2h-2v-2h2v-2h2v2h2v2h-2zM68 4v2h-2V4h-2V2h2V0h2v2h2v2h-2zm0 16v2h-2v-2h-2v-2h2v-2h2v2h2v2h-2zm0 16v2h-2v-2h-2v-2h2v-2h2v2h2v2h-2zm0 16v2h-2v-2h-2v-2h2v-2h2v2h2v2h-2zm0 16v2h-2v-2h-2v-2h2v-2h2v2h2v2h-2zm0 16v2h-2v-2h-2v-2h2v-2h2v2h2v2h-2zm0 16v2h-2v-2h-2v-2h2v-2h2v2h2v2h-2zm0 16v2h-2v-2h-2v-2h2v-2h2v2h2v2h-2zm0 16v2h-2v-2h-2v-2h2v-2h2v2h2v2h-2zm0 16v2h-2v-2h-2v-2h2v-2h2v2h2v2h-2zM84 4v2h-2V4h-2V2h2V0h2v2h2v2h-2zm0 16v2h-2v-2h-2v-2h2v-2h2v2h2v2h-2zm0 16v2h-2v-2h-2v-2h2v-2h2v2h2v2h-2zm0 16v2h-2v-2h-2v-2h2v-2h2v2h2v2h-2zm0 16v2h-2v-2h-2v-2h2v-2h2v2h2v2h-2zm0 16v2h-2v-2h-2v-2h2v-2h2v2h2v2h-2zm0 16v2h-2v-2h-2v-2h2v-2h2v2h2v2h-2zm0 16v2h-2v-2h-2v-2h2v-2h2v2h2v2h-2zm0 16v2h-2v-2h-2v-2h2v-2h2v2h2v2h-2zm0 16v2h-2v-2h-2v-2h2v-2h2v2h2v2h-2zM100 4v2h-2V4h-2V2h2V0h2v2h2v2h-2zm0 16v2h-2v-2h-2v-2h2v-2h2v2h2v2h-2zm0 16v2h-2v-2h-2v-2h2v-2h2v2h2v2h-2zm0 16v2h-2v-2h-2v-2h2v-2h2v2h2v2h-2zm0 16v2h-2v-2h-2v-2h2v-2h2v2h2v2h-2zm0 16v2h-2v-2h-2v-2h2v-2h2v2h2v2h-2zm0 16v2h-2v-2h-2v-2h2v-2h2v2h2v2h-2zm0 16v2h-2v-2h-2v-2h2v-2h2v2h2v2h-2zm0 16v2h-2v-2h-2v-2h2v-2h2v2h2v2h-2zm0 16v2h-2v-2h-2v-2h2v-2h2v2h2v2h-2zM116 4v2h-2V4h-2V2h2V0h2v2h2v2h-2zm0 16v2h-2v-2h-2v-2h2v-2h2v2h2v2h-2zm0 16v2h-2v-2h-2v-2h2v-2h2v2h2v2h-2zm0 16v2h-2v-2h-2v-2h2v-2h2v2h2v2h-2zm0 16v2h-2v-2h-2v-2h2v-2h2v2h2v2h-2zm0 16v2h-2v-2h-2v-2h2v-2h2v2h2v2h-2zm0 16v2h-2v-2h-2v-2h2v-2h2v2h2v2h-2zm0 16v2h-2v-2h-2v-2h2v-2h2v2h2v2h-2zm0 16v2h-2v-2h-2v-2h2v-2h2v2h2v2h-2zm0 16v2h-2v-2h-2v-2h2v-2h2v2h2v2h-2zM132 4v2h-2V4h-2V2h2V0h2v2h2v2h-2zm0 16v2h-2v-2h-2v-2h2v-2h2v2h2v2h-2zm0 16v2h-2v-2h-2v-2h2v-2h2v2h2v2h-2zm0 16v2h-2v-2h-2v-2h2v-2h2v2h2v2h-2zm0 16v2h-2v-2h-2v-2h2v-2h2v2h2v2h-2zm0 16v2h-2v-2h-2v-2h2v-2h2v2h2v2h-2zm0 16v2h-2v-2h-2v-2h2v-2h2v2h2v2h-2zm0 16v2h-2v-2h-2v-2h2v-2h2v2h2v2h-2zm0 16v2h-2v-2h-2v-2h2v-2h2v2h2v2h-2zm0 16v2h-2v-2h-2v-2h2v-2h2v2h2v2h-2zM148 4v2h-2V4h-2V2h2V0h2v2h2v2h-2zm0 16v2h-2v-2h-2v-2h2v-2h2v2h2v2h-2zm0 16v2h-2v-2h-2v-2h2v-2h2v2h2v2h-2zm0 16v2h-2v-2h-2v-2h2v-2h2v2h2v2h-2zm0 16v2h-2v-2h-2v-2h2v-2h2v2h2v2h-2zm0 16v2h-2v-2h-2v-2h2v-2h2v2h2v2h-2zm0 16v2h-2v-2h-2v-2h2v-2h2v2h2v2h-2zm0 16v2h-2v-2h-2v-2h2v-2h2v2h2v2h-2zm0 16v2h-2v-2h-2v-2h2v-2h2v2h2v2h-2zm0 16v2h-2v-2h-2v-2h2v-2h2v2h2v2h-2zM4 164v2H2v-2H0v-2h2v-2h2v2h2v2H4zm16 0v2h-2v-2h-2v-2h2v-2h2v2h2v2h-2zM4 180v2H2v-2H0v-2h2v-2h2v2h2v2H4zm16 0v2h-2v-2h-2v-2h2v-2h2v2h2v2h-2zM4 196v2H2v-2H0v-2h2v-2h2v2h2v2H4zm16 0v2h-2v-2h-2v-2h2v-2h2v2h2v2h-2zM4 212v2H2v-2H0v-2h2v-2h2v2h2v2H4zm16 0v2h-2v-2h-2v-2h2v-2h2v2h2v2h-2zM4 228v2H2v-2H0v-2h2v-2h2v2h2v2H4zm16 0v2h-2v-2h-2v-2h2v-2h2v2h2v2h-2zM4 244v2H2v-2H0v-2h2v-2h2v2h2v2H4zm16 0v2h-2v-2h-2v-2h2v-2h2v2h2v2h-2zM4 260v2H2v-2H0v-2h2v-2h2v2h2v2H4zm16 0v2h-2v-2h-2v-2h2v-2h2v2h2v2h-2zM4 276v2H2v-2H0v-2h2v-2h2v2h2v2H4zm16 0v2h-2v-2h-2v-2h2v-2h2v2h2v2h-2zM4 292v2H2v-2H0v-2h2v-2h2v2h2v2H4zm16 0v2h-2v-2h-2v-2h2v-2h2v2h2v2h-2zM4 308v2H2v-2H0v-2h2v-2h2v2h2v2H4zm16 0v2h-2v-2h-2v-2h2v-2h2v2h2v2h-2zm16-144v2h-2v-2h-2v-2h2v-2h2v2h2v2h-2zm0 16v2h-2v-2h-2v-2h2v-2h2v2h2v2h-2zm0 16v2h-2v-2h-2v-2h2v-2h2v2h2v2h-2zm0 16v2h-2v-2h-2v-2h2v-2h2v2h2v2h-2zm0 16v2h-2v-2h-2v-2h2v-2h2v2h2v2h-2zm0 16v2h-2v-2h-2v-2h2v-2h2v2h2v2h-2zm0 16v2h-2v-2h-2v-2h2v-2h2v2h2v2h-2zm0 16v2h-2v-2h-2v-2h2v-2h2v2h2v2h-2zm0 16v2h-2v-2h-2v-2h2v-2h2v2h2v2h-2zm0 16v2h-2v-2h-2v-2h2v-2h2v2h2v2h-2zm16-144v2h-2v-2h-2v-2h2v-2h2v2h2v2h-2zm0 16v2h-2v-2h-2v-2h2v-2h2v2h2v2h-2zm0 16v2h-2v-2h-2v-2h2v-2h2v2h2v2h-2zm0 16v2h-2v-2h-2v-2h2v-2h2v2h2v2h-2zm0 16v2h-2v-2h-2v-2h2v-2h2v2h2v2h-2zm0 16v2h-2v-2h-2v-2h2v-2h2v2h2v2h-2zm0 16v2h-2v-2h-2v-2h2v-2h2v2h2v2h-2zm0 16v2h-2v-2h-2v-2h2v-2h2v2h2v2h-2zm0 16v2h-2v-2h-2v-2h2v-2h2v2h2v2h-2zm0 16v2h-2v-2h-2v-2h2v-2h2v2h2v2h-2zm16-144v2h-2v-2h-2v-2h2v-2h2v2h2v2h-2zm0 16v2h-2v-2h-2v-2h2v-2h2v2h2v2h-2zm0 16v2h-2v-2h-2v-2h2v-2h2v2h2v2h-2zm0 16v2h-2v-2h-2v-2h2v-2h2v2h2v2h-2zm0 16v2h-2v-2h-2v-2h2v-2h2v2h2v2h-2zm0 16v2h-2v-2h-2v-2h2v-2h2v2h2v2h-2zm0 16v2h-2v-2h-2v-2h2v-2h2v2h2v2h-2zm0 16v2h-2v-2h-2v-2h2v-2h2v2h2v2h-2zm0 16v2h-2v-2h-2v-2h2v-2h2v2h2v2h-2zm0 16v2h-2v-2h-2v-2h2v-2h2v2h2v2h-2zm16-144v2h-2v-2h-2v-2h2v-2h2v2h2v2h-2zm0 16v2h-2v-2h-2v-2h2v-2h2v2h2v2h-2zm0 16v2h-2v-2h-2v-2h2v-2h2v2h2v2h-2zm0 16v2h-2v-2h-2v-2h2v-2h2v2h2v2h-2zm0 16v2h-2v-2h-2v-2h2v-2h2v2h2v2h-2zm0 16v2h-2v-2h-2v-2h2v-2h2v2h2v2h-2zm0 16v2h-2v-2h-2v-2h2v-2h2v2h2v2h-2zm0 16v2h-2v-2h-2v-2h2v-2h2v2h2v2h-2zm0 16v2h-2v-2h-2v-2h2v-2h2v2h2v2h-2zm0 16v2h-2v-2h-2v-2h2v-2h2v2h2v2h-2zm16-144v2h-2v-2h-2v-2h2v-2h2v2h2v2h-2zm0 16v2h-2v-2h-2v-2h2v-2h2v2h2v2h-2zm0 16v2h-2v-2h-2v-2h2v-2h2v2h2v2h-2zm0 16v2h-2v-2h-2v-2h2v-2h2v2h2v2h-2zm0 16v2h-2v-2h-2v-2h2v-2h2v2h2v2h-2zm0 16v2h-2v-2h-2v-2h2v-2h2v2h2v2h-2zm0 16v2h-2v-2h-2v-2h2v-2h2v2h2v2h-2zm0 16v2h-2v-2h-2v-2h2v-2h2v2h2v2h-2zm0 16v2h-2v-2h-2v-2h2v-2h2v2h2v2h-2zm0 16v2h-2v-2h-2v-2h2v-2h2v2h2v2h-2zm16-144v2h-2v-2h-2v-2h2v-2h2v2h2v2h-2zm0 16v2h-2v-2h-2v-2h2v-2h2v2h2v2h-2zm0 16v2h-2v-2h-2v-2h2v-2h2v2h2v2h-2zm0 16v2h-2v-2h-2v-2h2v-2h2v2h2v2h-2zm0 16v2h-2v-2h-2v-2h2v-2h2v2h2v2h-2zm0 16v2h-2v-2h-2v-2h2v-2h2v2h2v2h-2zm0 16v2h-2v-2h-2v-2h2v-2h2v2h2v2h-2zm0 16v2h-2v-2h-2v-2h2v-2h2v2h2v2h-2zm0 16v2h-2v-2h-2v-2h2v-2h2v2h2v2h-2zm0 16v2h-2v-2h-2v-2h2v-2h2v2h2v2h-2zm16-144v2h-2v-2h-2v-2h2v-2h2v2h2v2h-2zm0 16v2h-2v-2h-2v-2h2v-2h2v2h2v2h-2zm0 16v2h-2v-2h-2v-2h2v-2h2v2h2v2h-2zm0 16v2h-2v-2h-2v-2h2v-2h2v2h2v2h-2zm0 16v2h-2v-2h-2v-2h2v-2h2v2h2v2h-2zm0 16v2h-2v-2h-2v-2h2v-2h2v2h2v2h-2zm0 16v2h-2v-2h-2v-2h2v-2h2v2h2v2h-2zm0 16v2h-2v-2h-2v-2h2v-2h2v2h2v2h-2zm0 16v2h-2v-2h-2v-2h2v-2h2v2h2v2h-2zm0 16v2h-2v-2h-2v-2h2v-2h2v2h2v2h-2zm16-144v2h-2v-2h-2v-2h2v-2h2v2h2v2h-2zm0 16v2h-2v-2h-2v-2h2v-2h2v2h2v2h-2zm0 16v2h-2v-2h-2v-2h2v-2h2v2h2v2h-2zm0 16v2h-2v-2h-2v-2h2v-2h2v2h2v2h-2zm0 16v2h-2v-2h-2v-2h2v-2h2v2h2v2h-2zm0 16v2h-2v-2h-2v-2h2v-2h2v2h2v2h-2zm0 16v2h-2v-2h-2v-2h2v-2h2v2h2v2h-2zm0 16v2h-2v-2h-2v-2h2v-2h2v2h2v2h-2zm0 16v2h-2v-2h-2v-2h2v-2h2v2h2v2h-2zm0 16v2h-2v-2h-2v-2h2v-2h2v2h2v2h-2zM164 4v2h-2V4h-2V2h2V0h2v2h2v2h-2zm16 0v2h-2V4h-2V2h2V0h2v2h2v2h-2zm-16 16v2h-2v-2h-2v-2h2v-2h2v2h2v2h-2zm16 0v2h-2v-2h-2v-2h2v-2h2v2h2v2h-2zm-16 16v2h-2v-2h-2v-2h2v-2h2v2h2v2h-2zm16 0v2h-2v-2h-2v-2h2v-2h2v2h2v2h-2zm-16 16v2h-2v-2h-2v-2h2v-2h2v2h2v2h-2zm16 0v2h-2v-2h-2v-2h2v-2h2v2h2v2h-2zm-16 16v2h-2v-2h-2v-2h2v-2h2v2h2v2h-2zm16 0v2h-2v-2h-2v-2h2v-2h2v2h2v2h-2zm-16 16v2h-2v-2h-2v-2h2v-2h2v2h2v2h-2zm16 0v2h-2v-2h-2v-2h2v-2h2v2h2v2h-2zm-16 16v2h-2v-2h-2v-2h2v-2h2v2h2v2h-2zm16 0v2h-2v-2h-2v-2h2v-2h2v2h2v2h-2zm-16 16v2h-2v-2h-2v-2h2v-2h2v2h2v2h-2zm16 0v2h-2v-2h-2v-2h2v-2h2v2h2v2h-2zm-16 16v2h-2v-2h-2v-2h2v-2h2v2h2v2h-2zm16 0v2h-2v-2h-2v-2h2v-2h2v2h2v2h-2zm-16 16v2h-2v-2h-2v-2h2v-2h2v2h2v2h-2zm16 0v2h-2v-2h-2v-2h2v-2h2v2h2v2h-2zM196 4v2h-2V4h-2V2h2V0h2v2h2v2h-2zm0 16v2h-2v-2h-2v-2h2v-2h2v2h2v2h-2zm0 16v2h-2v-2h-2v-2h2v-2h2v2h2v2h-2zm0 16v2h-2v-2h-2v-2h2v-2h2v2h2v2h-2zm0 16v2h-2v-2h-2v-2h2v-2h2v2h2v2h-2zm0 16v2h-2v-2h-2v-2h2v-2h2v2h2v2h-2zm0 16v2h-2v-2h-2v-2h2v-2h2v2h2v2h-2zm0 16v2h-2v-2h-2v-2h2v-2h2v2h2v2h-2zm0 16v2h-2v-2h-2v-2h2v-2h2v2h2v2h-2zm0 16v2h-2v-2h-2v-2h2v-2h2v2h2v2h-2zM212 4v2h-2V4h-2V2h2V0h2v2h2v2h-2zm0 16v2h-2v-2h-2v-2h2v-2h2v2h2v2h-2zm0 16v2h-2v-2h-2v-2h2v-2h2v2h2v2h-2zm0 16v2h-2v-2h-2v-2h2v-2h2v2h2v2h-2zm0 16v2h-2v-2h-2v-2h2v-2h2v2h2v2h-2zm0 16v2h-2v-2h-2v-2h2v-2h2v2h2v2h-2zm0 16v2h-2v-2h-2v-2h2v-2h2v2h2v2h-2zm0 16v2h-2v-2h-2v-2h2v-2h2v2h2v2h-2zm0 16v2h-2v-2h-2v-2h2v-2h2v2h2v2h-2zm0 16v2h-2v-2h-2v-2h2v-2h2v2h2v2h-2zM228 4v2h-2V4h-2V2h2V0h2v2h2v2h-2zm0 16v2h-2v-2h-2v-2h2v-2h2v2h2v2h-2zm0 16v2h-2v-2h-2v-2h2v-2h2v2h2v2h-2zm0 16v2h-2v-2h-2v-2h2v-2h2v2h2v2h-2zm0 16v2h-2v-2h-2v-2h2v-2h2v2h2v2h-2zm0 16v2h-2v-2h-2v-2h2v-2h2v2h2v2h-2zm0 16v2h-2v-2h-2v-2h2v-2h2v2h2v2h-2zm0 16v2h-2v-2h-2v-2h2v-2h2v2h2v2h-2zm0 16v2h-2v-2h-2v-2h2v-2h2v2h2v2h-2zm0 16v2h-2v-2h-2v-2h2v-2h2v2h2v2h-2zM244 4v2h-2V4h-2V2h2V0h2v2h2v2h-2zm0 16v2h-2v-2h-2v-2h2v-2h2v2h2v2h-2zm0 16v2h-2v-2h-2v-2h2v-2h2v2h2v2h-2zm0 16v2h-2v-2h-2v-2h2v-2h2v2h2v2h-2zm0 16v2h-2v-2h-2v-2h2v-2h2v2h2v2h-2zm0 16v2h-2v-2h-2v-2h2v-2h2v2h2v2h-2zm0 16v2h-2v-2h-2v-2h2v-2h2v2h2v2h-2zm0 16v2h-2v-2h-2v-2h2v-2h2v2h2v2h-2zm0 16v2h-2v-2h-2v-2h2v-2h2v2h2v2h-2zm0 16v2h-2v-2h-2v-2h2v-2h2v2h2v2h-2zM260 4v2h-2V4h-2V2h2V0h2v2h2v2h-2zm0 16v2h-2v-2h-2v-2h2v-2h2v2h2v2h-2zm0 16v2h-2v-2h-2v-2h2v-2h2v2h2v2h-2zm0 16v2h-2v-2h-2v-2h2v-2h2v2h2v2h-2zm0 16v2h-2v-2h-2v-2h2v-2h2v2h2v2h-2zm0 16v2h-2v-2h-2v-2h2v-2h2v2h2v2h-2zm0 16v2h-2v-2h-2v-2h2v-2h2v2h2v2h-2zm0 16v2h-2v-2h-2v-2h2v-2h2v2h2v2h-2zm0 16v2h-2v-2h-2v-2h2v-2h2v2h2v2h-2zm0 16v2h-2v-2h-2v-2h2v-2h2v2h2v2h-2zM276 4v2h-2V4h-2V2h2V0h2v2h2v2h-2zm0 16v2h-2v-2h-2v-2h2v-2h2v2h2v2h-2zm0 16v2h-2v-2h-2v-2h2v-2h2v2h2v2h-2zm0 16v2h-2v-2h-2v-2h2v-2h2v2h2v2h-2zm0 16v2h-2v-2h-2v-2h2v-2h2v2h2v2h-2zm0 16v2h-2v-2h-2v-2h2v-2h2v2h2v2h-2zm0 16v2h-2v-2h-2v-2h2v-2h2v2h2v2h-2zm0 16v2h-2v-2h-2v-2h2v-2h2v2h2v2h-2zm0 16v2h-2v-2h-2v-2h2v-2h2v2h2v2h-2zm0 16v2h-2v-2h-2v-2h2v-2h2v2h2v2h-2zM292 4v2h-2V4h-2V2h2V0h2v2h2v2h-2zm0 16v2h-2v-2h-2v-2h2v-2h2v2h2v2h-2zm0 16v2h-2v-2h-2v-2h2v-2h2v2h2v2h-2zm0 16v2h-2v-2h-2v-2h2v-2h2v2h2v2h-2zm0 16v2h-2v-2h-2v-2h2v-2h2v2h2v2h-2zm0 16v2h-2v-2h-2v-2h2v-2h2v2h2v2h-2zm0 16v2h-2v-2h-2v-2h2v-2h2v2h2v2h-2zm0 16v2h-2v-2h-2v-2h2v-2h2v2h2v2h-2zm0 16v2h-2v-2h-2v-2h2v-2h2v2h2v2h-2zm0 16v2h-2v-2h-2v-2h2v-2h2v2h2v2h-2zM308 4v2h-2V4h-2V2h2V0h2v2h2v2h-2zm0 16v2h-2v-2h-2v-2h2v-2h2v2h2v2h-2zm0 16v2h-2v-2h-2v-2h2v-2h2v2h2v2h-2zm0 16v2h-2v-2h-2v-2h2v-2h2v2h2v2h-2zm0 16v2h-2v-2h-2v-2h2v-2h2v2h2v2h-2zm0 16v2h-2v-2h-2v-2h2v-2h2v2h2v2h-2zm0 16v2h-2v-2h-2v-2h2v-2h2v2h2v2h-2zm0 16v2h-2v-2h-2v-2h2v-2h2v2h2v2h-2zm0 16v2h-2v-2h-2v-2h2v-2h2v2h2v2h-2zm0 16v2h-2v-2h-2v-2h2v-2h2v2h2v2h-2zm-144 16v2h-2v-2h-2v-2h2v-2h2v2h2v2h-2zm16 0v2h-2v-2h-2v-2h2v-2h2v2h2v2h-2zm-16 16v2h-2v-2h-2v-2h2v-2h2v2h2v2h-2zm16 0v2h-2v-2h-2v-2h2v-2h2v2h2v2h-2zm-16 16v2h-2v-2h-2v-2h2v-2h2v2h2v2h-2zm16 0v2h-2v-2h-2v-2h2v-2h2v2h2v2h-2zm-16 16v2h-2v-2h-2v-2h2v-2h2v2h2v2h-2zm16 0v2h-2v-2h-2v-2h2v-2h2v2h2v2h-2zm-16 16v2h-2v-2h-2v-2h2v-2h2v2h2v2h-2zm16 0v2h-2v-2h-2v-2h2v-2h2v2h2v2h-2zm-16 16v2h-2v-2h-2v-2h2v-2h2v2h2v2h-2zm16 0v2h-2v-2h-2v-2h2v-2h2v2h2v2h-2zm-16 16v2h-2v-2h-2v-2h2v-2h2v2h2v2h-2zm16 0v2h-2v-2h-2v-2h2v-2h2v2h2v2h-2zm-16 16v2h-2v-2h-2v-2h2v-2h2v2h2v2h-2zm16 0v2h-2v-2h-2v-2h2v-2h2v2h2v2h-2zm-16 16v2h-2v-2h-2v-2h2v-2h2v2h2v2h-2zm16 0v2h-2v-2h-2v-2h2v-2h2v2h2v2h-2zm-16 16v2h-2v-2h-2v-2h2v-2h2v2h2v2h-2zm16 0v2h-2v-2h-2v-2h2v-2h2v2h2v2h-2zm16-144v2h-2v-2h-2v-2h2v-2h2v2h2v2h-2zm0 16v2h-2v-2h-2v-2h2v-2h2v2h2v2h-2zm0 16v2h-2v-2h-2v-2h2v-2h2v2h2v2h-2zm0 16v2h-2v-2h-2v-2h2v-2h2v2h2v2h-2zm0 16v2h-2v-2h-2v-2h2v-2h2v2h2v2h-2zm0 16v2h-2v-2h-2v-2h2v-2h2v2h2v2h-2zm0 16v2h-2v-2h-2v-2h2v-2h2v2h2v2h-2zm0 16v2h-2v-2h-2v-2h2v-2h2v2h2v2h-2zm0 16v2h-2v-2h-2v-2h2v-2h2v2h2v2h-2zm0 16v2h-2v-2h-2v-2h2v-2h2v2h2v2h-2zm16-144v2h-2v-2h-2v-2h2v-2h2v2h2v2h-2zm0 16v2h-2v-2h-2v-2h2v-2h2v2h2v2h-2zm0 16v2h-2v-2h-2v-2h2v-2h2v2h2v2h-2zm0 16v2h-2v-2h-2v-2h2v-2h2v2h2v2h-2zm0 16v2h-2v-2h-2v-2h2v-2h2v2h2v2h-2zm0 16v2h-2v-2h-2v-2h2v-2h2v2h2v2h-2zm0 16v2h-2v-2h-2v-2h2v-2h2v2h2v2h-2zm0 16v2h-2v-2h-2v-2h2v-2h2v2h2v2h-2zm0 16v2h-2v-2h-2v-2h2v-2h2v2h2v2h-2zm0 16v2h-2v-2h-2v-2h2v-2h2v2h2v2h-2zm16-144v2h-2v-2h-2v-2h2v-2h2v2h2v2h-2zm0 16v2h-2v-2h-2v-2h2v-2h2v2h2v2h-2zm0 16v2h-2v-2h-2v-2h2v-2h2v2h2v2h-2zm0 16v2h-2v-2h-2v-2h2v-2h2v2h2v2h-2zm0 16v2h-2v-2h-2v-2h2v-2h2v2h2v2h-2zm0 16v2h-2v-2h-2v-2h2v-2h2v2h2v2h-2zm0 16v2h-2v-2h-2v-2h2v-2h2v2h2v2h-2zm0 16v2h-2v-2h-2v-2h2v-2h2v2h2v2h-2zm0 16v2h-2v-2h-2v-2h2v-2h2v2h2v2h-2zm0 16v2h-2v-2h-2v-2h2v-2h2v2h2v2h-2zm16-144v2h-2v-2h-2v-2h2v-2h2v2h2v2h-2zm0 16v2h-2v-2h-2v-2h2v-2h2v2h2v2h-2zm0 16v2h-2v-2h-2v-2h2v-2h2v2h2v2h-2zm0 16v2h-2v-2h-2v-2h2v-2h2v2h2v2h-2zm0 16v2h-2v-2h-2v-2h2v-2h2v2h2v2h-2zm0 16v2h-2v-2h-2v-2h2v-2h2v2h2v2h-2zm0 16v2h-2v-2h-2v-2h2v-2h2v2h2v2h-2zm0 16v2h-2v-2h-2v-2h2v-2h2v2h2v2h-2zm0 16v2h-2v-2h-2v-2h2v-2h2v2h2v2h-2zm0 16v2h-2v-2h-2v-2h2v-2h2v2h2v2h-2zm16-144v2h-2v-2h-2v-2h2v-2h2v2h2v2h-2zm0 16v2h-2v-2h-2v-2h2v-2h2v2h2v2h-2zm0 16v2h-2v-2h-2v-2h2v-2h2v2h2v2h-2zm0 16v2h-2v-2h-2v-2h2v-2h2v2h2v2h-2zm0 16v2h-2v-2h-2v-2h2v-2h2v2h2v2h-2zm0 16v2h-2v-2h-2v-2h2v-2h2v2h2v2h-2zm0 16v2h-2v-2h-2v-2h2v-2h2v2h2v2h-2zm0 16v2h-2v-2h-2v-2h2v-2h2v2h2v2h-2zm0 16v2h-2v-2h-2v-2h2v-2h2v2h2v2h-2zm0 16v2h-2v-2h-2v-2h2v-2h2v2h2v2h-2zm16-144v2h-2v-2h-2v-2h2v-2h2v2h2v2h-2zm0 16v2h-2v-2h-2v-2h2v-2h2v2h2v2h-2zm0 16v2h-2v-2h-2v-2h2v-2h2v2h2v2h-2zm0 16v2h-2v-2h-2v-2h2v-2h2v2h2v2h-2zm0 16v2h-2v-2h-2v-2h2v-2h2v2h2v2h-2zm0 16v2h-2v-2h-2v-2h2v-2h2v2h2v2h-2zm0 16v2h-2v-2h-2v-2h2v-2h2v2h2v2h-2zm0 16v2h-2v-2h-2v-2h2v-2h2v2h2v2h-2zm0 16v2h-2v-2h-2v-2h2v-2h2v2h2v2h-2zm0 16v2h-2v-2h-2v-2h2v-2h2v2h2v2h-2zm16-144v2h-2v-2h-2v-2h2v-2h2v2h2v2h-2zm0 16v2h-2v-2h-2v-2h2v-2h2v2h2v2h-2zm0 16v2h-2v-2h-2v-2h2v-2h2v2h2v2h-2zm0 16v2h-2v-2h-2v-2h2v-2h2v2h2v2h-2zm0 16v2h-2v-2h-2v-2h2v-2h2v2h2v2h-2zm0 16v2h-2v-2h-2v-2h2v-2h2v2h2v2h-2zm0 16v2h-2v-2h-2v-2h2v-2h2v2h2v2h-2zm0 16v2h-2v-2h-2v-2h2v-2h2v2h2v2h-2zm0 16v2h-2v-2h-2v-2h2v-2h2v2h2v2h-2zm0 16v2h-2v-2h-2v-2h2v-2h2v2h2v2h-2zm16-144v2h-2v-2h-2v-2h2v-2h2v2h2v2h-2zm0 16v2h-2v-2h-2v-2h2v-2h2v2h2v2h-2zm0 16v2h-2v-2h-2v-2h2v-2h2v2h2v2h-2zm0 16v2h-2v-2h-2v-2h2v-2h2v2h2v2h-2zm0 16v2h-2v-2h-2v-2h2v-2h2v2h2v2h-2zm0 16v2h-2v-2h-2v-2h2v-2h2v2h2v2h-2zm0 16v2h-2v-2h-2v-2h2v-2h2v2h2v2h-2zm0 16v2h-2v-2h-2v-2h2v-2h2v2h2v2h-2zm0 16v2h-2v-2h-2v-2h2v-2h2v2h2v2h-2zm0 16v2h-2v-2h-2v-2h2v-2h2v2h2v2h-2z" fill="#ECF5FC"/></svg>