<svg xmlns="http://www.w3.org/2000/svg" width="56" height="56"><path fill="#DC395F" d="M50.924 0A5.077 5.077 0 0 1 56 5.076v45.848A5.077 5.077 0 0 1 50.924 56H5.076A5.077 5.077 0 0 1 0 50.924V5.076A5.077 5.077 0 0 1 5.076 0h45.848zM11.622 35.67c-.201.856-.302 1.78-.302 2.533 0 2.968 1.61 4.94 5.03 4.94 2.838 0 5.138-1.686 6.794-4.406l-1.01 4.058h5.633l3.22-12.915c.805-3.27 2.364-4.967 4.73-4.967 1.86 0 3.018 1.158 3.018 3.069a6.03 6.03 0 0 1-.252 1.81l-1.66 5.937a8.922 8.922 0 0 0-.352 2.515c0 2.819 1.66 4.88 5.13 4.88 2.97 0 5.333-1.91 6.642-6.489l-2.214-.855c-1.107 3.068-2.063 3.622-2.817 3.622-.755 0-1.157-.503-1.157-1.508 0-.453.1-.955.251-1.56l1.61-5.784c.402-1.358.554-2.562.554-3.669 0-4.326-2.617-6.584-5.786-6.584-2.968 0-5.987 2.677-7.495 5.495l1.106-5.057h-8.602l-1.208 4.454h4.025l-2.478 9.923c-1.947 4.326-5.522 4.396-5.97 4.296-.737-.166-1.208-.446-1.208-1.403 0-.553.1-1.346.352-2.303l3.773-14.967h-9.558l-1.208 4.454h3.975l-2.566 10.482zm7.093-18.05c1.862 0 3.421-1.46 3.421-3.372 0-1.911-1.56-3.37-3.42-3.37-1.862 0-3.421 1.459-3.421 3.37 0 1.912 1.559 3.371 3.42 3.371z"/></svg>