<svg xmlns="http://www.w3.org/2000/svg" xmlns:xlink="http://www.w3.org/1999/xlink" width="899" height="523"><defs><path id="b" d="M125.115 0h651.77c14.256 0 18.256 0 24.394 2.055 7.256 2.642 13.005 8.367 15.657 15.594C819 23.762 819 27.746 819 41.945v431.11c0 14.199 0 18.183-2.064 24.296-2.652 7.227-8.4 12.952-15.657 15.594C795.141 515 791.141 515 776.885 515h-651.77c-14.256 0-18.257 0-24.394-2.055-7.256-2.642-13.005-8.367-15.657-15.594C83 491.238 83 487.254 83 473.055V41.945c0-14.199 0-18.183 2.064-24.296 2.652-7.227 8.4-12.952 15.657-15.594C106.858 0 110.859 0 125.115 0z"/><filter id="a" width="101.8%" height="102.5%" x="-.9%" y="-1.5%" filterUnits="objectBoundingBox"><feOffset dy="-1" in="SourceAlpha" result="shadowOffsetOuter1"/><feGaussianBlur in="shadowOffsetOuter1" result="shadowBlurOuter1" stdDeviation="2"/><feColorMatrix in="shadowBlurOuter1" values="0 0 0 0 0.878431373 0 0 0 0 0.878431373 0 0 0 0 0.878431373 0 0 0 1 0"/></filter><linearGradient id="d" x1="0%" y1="50%" y2="50%"><stop offset="0%" stop-opacity=".04"/><stop offset="100%" stop-color="#FFF" stop-opacity=".04"/></linearGradient><path id="c" d="M.835.792h897.33v4.75H.835z"/><filter id="e" width="100.1%" height="121.1%" x="-.1%" y="-10.5%" filterUnits="objectBoundingBox"><feOffset dy="1" in="SourceAlpha" result="shadowOffsetInner1"/><feComposite in="shadowOffsetInner1" in2="SourceAlpha" k2="-1" k3="1" operator="arithmetic" result="shadowInnerInner1"/><feColorMatrix in="shadowInnerInner1" values="0 0 0 0 0 0 0 0 0 0 0 0 0 0 0 0 0 0 0.02 0"/></filter><linearGradient id="f" x1="124.719%" x2="0%" y1="50%" y2="50%"><stop offset="0%"/><stop offset="100%" stop-color="#FFF"/><stop offset="100%" stop-color="#FFF"/></linearGradient><linearGradient id="g" x1="0%" y1="50%" y2="50%"><stop offset="0%"/><stop offset="100%" stop-color="#FFF"/><stop offset="100%" stop-color="#FFF"/></linearGradient><linearGradient id="i" x1="0%" y1="50%" y2="50%"><stop offset="0%" stop-opacity=".07"/><stop offset="100%" stop-color="#EAEAEA" stop-opacity=".07"/><stop offset="200%" stop-color="#FFF" stop-opacity=".07"/></linearGradient><linearGradient id="j" x1="50%" x2="50%" y1="0%" y2="100%"><stop offset="0%" stop-opacity=".07"/><stop offset="100%" stop-color="#FFF" stop-opacity=".07"/></linearGradient><linearGradient id="k" x1="50%" x2="50%" y1="0%" y2="100%"><stop offset="0%" stop-color="#FFF" stop-opacity=".05"/><stop offset="100%" stop-opacity=".05"/></linearGradient><path id="h" d="M.835 5.542h897.33c-5.303 3.138-52.342 16.01-208.876 12.666-13.824 0-403.41-.395-488.769-.395-99.067 0-140.078.377-177.508-6.458C9.908 8.963 3.346 6.987.835 5.542z"/><path id="l" d="M380.153.792H535.14v4.354c0 1.668-16.71 1.979-16.71 1.979H380.153s-16.71-.31-16.71-1.98V.793h16.71z"/><filter id="m" width="100.6%" height="115.8%" x="-.3%" y="-7.9%" filterUnits="objectBoundingBox"><feOffset dy="1" in="SourceAlpha" result="shadowOffsetInner1"/><feComposite in="shadowOffsetInner1" in2="SourceAlpha" k2="-1" k3="1" operator="arithmetic" result="shadowInnerInner1"/><feColorMatrix in="shadowInnerInner1" values="0 0 0 0 0 0 0 0 0 0 0 0 0 0 0 0 0 0 0.03 0"/></filter><linearGradient id="n" x1="100%" x2="0%" y1="50%" y2="50%"><stop offset="0%"/><stop offset="100%" stop-color="#FFF"/><stop offset="100%" stop-color="#FFF"/></linearGradient><path id="o" d="M0 0h677v421H0z"/></defs><g fill="none" fill-rule="evenodd" transform="translate(0 5)"><use fill="#000" filter="url(#a)" xlink:href="#b"/><use fill="#FFF" xlink:href="#b"/><path fill="#F2F2F2" d="M448 18a3 3 0 1 1 0 6 3 3 0 0 1 0-6z"/><g transform="translate(0 497)"><use fill="#FFF" xlink:href="#c"/><use fill="url(#d)" xlink:href="#c" style="mix-blend-mode:multiply"/><use fill="#000" filter="url(#e)" xlink:href="#c"/><path fill="url(#f)" opacity=".1" style="mix-blend-mode:multiply" d="M864.744.792h33.421v4.75h-33.421z"/><path fill="url(#g)" opacity=".1" style="mix-blend-mode:multiply" d="M.835.792h33.421v4.75H.835z"/><use fill="#FFF" xlink:href="#h"/><use fill="url(#i)" xlink:href="#h" style="mix-blend-mode:multiply"/><use fill="url(#i)" xlink:href="#h" style="mix-blend-mode:multiply"/><use fill="url(#j)" xlink:href="#h" style="mix-blend-mode:multiply"/><use fill="url(#k)" xlink:href="#h" style="mix-blend-mode:multiply"/><use fill="#FFF" xlink:href="#l"/><use fill="#000" filter="url(#m)" xlink:href="#l"/><path fill="url(#g)" d="M363.443.792h16.71v6.333s-16.71-.31-16.71-1.98V.793z" opacity=".07" style="mix-blend-mode:multiply"/><path fill="url(#n)" d="M535.139.792h-16.71v6.333s16.71-.31 16.71-1.98V.793z" opacity=".07" style="mix-blend-mode:multiply"/></g><use fill="#F7F7F7" xlink:href="#o" transform="translate(112 33)"/><text fill="#37474F" font-family="CourierNewPSMT, Courier New" font-size="14"><tspan x="156.702" y="75">// Require the Stripe library with a test secret key.</tspan> <tspan x="156.702" y="91">const stripe = require(&apos;stripe&apos;)(&apos;sk_test_BQokikJOvBiI2HlWgH4olfQ2&apos;);</tspan> <tspan x="156.702" y="123">// Create a payment from a test card token.</tspan> <tspan x="156.702" y="139">const charge = await stripe.charges.create({</tspan> <tspan x="156.702" y="155"> amount: 2000,</tspan> <tspan x="156.702" y="171"> currency: &apos;usd&apos;,</tspan> <tspan x="156.702" y="187"> source: &apos;tok_mastercard&apos;,</tspan> <tspan x="156.702" y="203"> description: &apos;My first payment&apos;</tspan> <tspan x="156.702" y="219">});</tspan> <tspan x="155" y="249.706">// Click “</tspan> <tspan x="225.772" y="247.724" font-family="LucidaGrande, Lucida Grande">▶</tspan> <tspan x="251.332" y="249.706"> run” to try this code live and create your first payment.</tspan></text></g></svg>