<svg xmlns="http://www.w3.org/2000/svg" xmlns:xlink="http://www.w3.org/1999/xlink" width="276" height="560"><defs><rect id="b" width="268" height="552" rx="34"/><filter id="a" width="104.5%" height="102.2%" x="-2.2%" y="-1.1%" filterUnits="objectBoundingBox"><feOffset in="SourceAlpha" result="shadowOffsetOuter1"/><feGaussianBlur in="shadowOffsetOuter1" result="shadowBlurOuter1" stdDeviation="2"/><feColorMatrix in="shadowBlurOuter1" values="0 0 0 0 0.878431373 0 0 0 0 0.878431373 0 0 0 0 0.878431373 0 0 0 1 0"/></filter><path id="c" d="M68.97 19.507h106.06c8.624 0 15.615-6.987 15.615-16.418a3.26 3.26 0 0 1 3.087-3.085L219.275 0C232.93 0 244 11.063 244 24.71v478.58c0 13.647-11.07 24.71-24.725 24.71H24.725C11.07 528 0 516.937 0 503.29V24.71C0 11.062 11.07 0 24.725 0h25.539a3.26 3.26 0 0 1 3.086 3.084c.005 9.436 6.996 16.423 15.62 16.423z"/></defs><g fill="none" fill-rule="evenodd" transform="translate(4 4)"><use fill="#000" filter="url(#a)" xlink:href="#b"/><use fill="#FFF" xlink:href="#b"/><use fill="#F7F7F7" xlink:href="#c" transform="translate(12 12)"/><circle cx="164.5" cy="16.5" r="4.5" fill="#F2F2F2"/><rect width="35" height="4" x="117" y="15" fill="#F2F2F2" rx="2"/><text fill="#37474F" font-family="CourierNewPSMT, Courier New" font-size="12"><tspan x="22" y="69">// Require the Stripe library </tspan> <tspan x="22" y="85">with a test secret key.</tspan> <tspan x="22" y="101">const stripe = </tspan> <tspan x="22" y="117">require(&apos;stripe&apos;)</tspan> <tspan x="22" y="133">(&apos;sk_test_BQokikJOvBiI2HlWgH4ol</tspan> <tspan x="22" y="149">fQ2&apos;);</tspan> <tspan x="22" y="181">// Create a payment from a test </tspan> <tspan x="22" y="197">card token.</tspan> <tspan x="22" y="213">const charge = await </tspan> <tspan x="22" y="229">stripe.charges.create({</tspan> <tspan x="22" y="245"> amount: 2000,</tspan> <tspan x="22" y="261"> currency: &apos;usd&apos;,</tspan> <tspan x="22" y="277"> source: &apos;tok_mastercard&apos;,</tspan> <tspan x="22" y="293"> description: &apos;My first </tspan> <tspan x="22" y="309">payment&apos;</tspan> <tspan x="22" y="325">});</tspan> <tspan x="22" y="357">// Click “</tspan> <tspan x="94.012" y="357" font-family="LucidaGrande, Lucida Grande">▶</tspan> <tspan x="104.57" y="357"> run” to try this </tspan> <tspan x="22" y="373">code live and create your first </tspan> <tspan x="22" y="389">payment.</tspan></text></g></svg>