<svg xmlns="http://www.w3.org/2000/svg" width="56" height="56"><path fill="#00AFF0" d="M54.018 32.675c-.018.098-.03.198-.049.297l-.096-.566c.053.088.096.18.145.269.289-1.577.44-3.192.44-4.805 0-3.578-.698-7.05-2.079-10.318a26.398 26.398 0 0 0-5.668-8.426 26.343 26.343 0 0 0-8.404-5.68 26.213 26.213 0 0 0-10.291-2.082 26.53 26.53 0 0 0-5.008.474l-.012.001c.092.05.185.093.276.143l-.556-.087c.093-.017.187-.037.28-.056A15.645 15.645 0 0 0 15.655 0a15.53 15.53 0 0 0-11.07 4.597A15.613 15.613 0 0 0 0 15.693c0 2.668.685 5.29 1.97 7.608.017-.096.028-.193.047-.289l.095.556c-.05-.087-.093-.178-.142-.267a26.759 26.759 0 0 0-.399 4.569c0 3.579.7 7.05 2.08 10.318a26.388 26.388 0 0 0 5.664 8.425 26.298 26.298 0 0 0 8.408 5.679 26.173 26.173 0 0 0 10.293 2.086c1.553 0 3.11-.142 4.63-.412-.088-.05-.179-.095-.269-.148l.565.1c-.098.019-.196.03-.295.048A15.613 15.613 0 0 0 40.348 56c4.18 0 8.11-1.63 11.067-4.595A15.6 15.6 0 0 0 56 40.309a15.72 15.72 0 0 0-1.982-7.634zM28.12 44.104c-9.394 0-13.597-4.63-13.597-8.1 0-1.78 1.31-3.027 3.117-3.027 4.02 0 2.98 5.786 10.48 5.786 3.84 0 5.96-2.09 5.96-4.228 0-1.287-.633-2.713-3.161-3.338l-8.356-2.09c-6.73-1.692-7.95-5.339-7.95-8.767 0-7.117 6.685-9.79 12.963-9.79 5.783 0 12.6 3.204 12.6 7.474 0 1.83-1.58 2.894-3.386 2.894-3.431 0-2.8-4.76-9.711-4.76-3.43 0-5.33 1.556-5.33 3.784 0 2.223 2.71 2.933 5.061 3.47l6.185 1.377c6.775 1.513 8.493 5.477 8.493 9.212 0 5.784-4.43 10.103-13.368 10.103zm4.256 9.714c.09.053.181.098.27.148.099-.018.197-.03.295-.048l-.565-.1zm21.592-20.846c.019-.099.031-.199.049-.297-.049-.09-.092-.18-.145-.269l.096.566zm-51.952-9.96c-.019.096-.03.193-.047.29.05.088.093.179.142.266l-.095-.556zm21.255-21.03c-.09-.05-.184-.094-.276-.143-.093.019-.187.039-.28.056l.556.087z"/></svg>