<svg xmlns="http://www.w3.org/2000/svg" width="56" height="56"><g fill="none"><path fill="#DFA22F" d="M36.305 3.465a4.986 4.986 0 1 0-9.486 3.081L39.714 46.22a4.987 4.987 0 0 0 6.066 3.092c2.647-.762 4.26-3.573 3.416-6.172L36.305 3.465"/><path fill="#3CB187" d="M16.324 9.957a4.987 4.987 0 0 0-9.485 3.082l12.895 39.674a4.986 4.986 0 0 0 6.066 3.091c2.647-.762 4.26-3.573 3.415-6.172L16.325 9.957"/><path fill="#CE1E5B" d="M52.535 36.322a4.987 4.987 0 1 0-3.081-9.485L9.78 39.732a4.986 4.986 0 0 0-3.092 6.066c.762 2.647 3.573 4.26 6.172 3.415l39.675-12.89"/><path fill="#392538" d="M18.049 47.528l9.482-3.081c-.84-2.582-1.92-5.911-3.081-9.483l-9.483 3.082 3.082 9.482"/><path fill="#BB242A" d="M38.029 41.036l9.482-3.081-3.081-9.485-9.483 3.082 3.082 9.484"/><path fill="#72C5CD" d="M46.043 16.342a4.987 4.987 0 0 0-3.082-9.486L3.287 19.751a4.985 4.985 0 0 0-3.091 6.066c.762 2.647 3.573 4.26 6.172 3.416l39.675-12.891"/><path fill="#248C73" d="M11.555 27.548l9.484-3.082-3.081-9.483-9.485 3.083 3.082 9.482"/><path fill="#62803A" d="M31.535 21.056l9.484-3.082-3.082-9.485-9.484 3.083 3.082 9.484"/></g></svg>