<svg xmlns="http://www.w3.org/2000/svg" viewBox="0 0 402 402"><path d="M73.1 164.5h255.8c4.9 0 9.2-1.8 12.8-5.4 3.6-3.6 5.4-7.9 5.4-12.8s-1.8-9.2-5.4-12.9L213.8 5.4C210.2 1.8 206 0 201 0s-9.2 1.8-12.9 5.4L60.2 133.3c-3.6 3.6-5.4 7.9-5.4 12.9 0 4.9 1.8 9.2 5.4 12.8 3.7 3.6 7.9 5.5 12.9 5.5zm255.8 73H73.1c-5 0-9.2 1.8-12.8 5.4-3.6 3.6-5.4 7.9-5.4 12.8s1.8 9.2 5.4 12.8l127.9 127.9c3.6 3.6 7.9 5.4 12.9 5.4s9.2-1.8 12.8-5.4l127.9-127.9c3.6-3.6 5.4-7.9 5.4-12.8s-1.8-9.2-5.4-12.8c-3.7-3.5-7.9-5.4-12.9-5.4z" fill="#009fd3"/></svg>