<svg xmlns="http://www.w3.org/2000/svg" width="448" height="47"><g fill="none" fill-rule="evenodd"><path d="M223 4v4.8m0 14.4V28m-8.484-20.484l3.396 3.396m10.176 10.176l3.396 3.396M211 16h4.8m14.4 0h4.8m-20.484 8.484l3.396-3.396m10.176-10.176l3.396-3.396" stroke="#009FD3" stroke-linecap="round" stroke-linejoin="round" stroke-width="2"/><g fill-rule="nonzero"><path fill="#1D1D1B" d="M358.9 7.448c-1.145-.637-2.844-.949-5.198-.949-3.219.003-6.208.682-7.337 1.109-.256.083-.528.307-.535.688v.086l.32 1.626.007.032c.099.328.371.48.616.48h.005c.08-.006.14-.022.198-.037l.536-.128c1.403-.352 3.523-.893 5.888-.893 1.437 0 2.4.128 3.048.404 1.05.404 1.056 1.094 1.067 2.235v1.707c-.12-.003-.323-.005-.635-.005-1.16 0-3.44.056-5.68.42-3.42.534-6.251 1.364-6.232 6.151 0 6.077 5.552 6.087 8.218 6.093 1.808-.003 3.48-.275 4.572-.502 2.488-.587 3.125-1.389 3.092-3.9V11.959c0-1.542.006-3.459-1.952-4.512l.001.002zm-1.369 15.605c-1.325.437-2.774.656-4.31.656v.144-.144c-2.455-.02-4.848-.304-4.853-3.48.016-2.528 1.344-2.827 3.024-3.208l.117-.027c1.494-.325 5.251-.384 6.024-.394v6.453h-.002zm31.056-11.096v10.102c.032 2.512-.603 3.312-3.093 3.9-1.088.228-2.76.5-4.57.502-2.666-.007-8.217-.016-8.218-6.091-.021-4.784 2.81-5.616 6.23-6.15 2.24-.366 4.522-.422 5.68-.422.314 0 .515.004.64.005v-1.705c-.013-1.141-.02-1.83-1.069-2.234-.646-.278-1.613-.403-3.05-.403-2.367 0-4.486.537-5.887.893l-.535.128a.642.642 0 0 1-.818-.448l-.007-.03-.32-1.625v-.085c.006-.38.278-.608.532-.688 1.133-.427 4.119-1.107 7.34-1.108 2.352 0 4.052.312 5.195.95 1.957 1.051 1.952 2.968 1.949 4.509h.001zm-3.312 4.643c-.777.008-4.528.069-6.025.394l-.12.027c-1.68.38-3.008.68-3.024 3.208.003 3.176 2.4 3.462 4.854 3.48v.144-.144c1.536 0 2.986-.22 4.31-.656V16.6h.005zm53.563-10.102c-7.728.012-8.384 5.168-8.392 10 .008 4.816.663 9.952 8.392 9.963 7.724-.013 8.381-5.136 8.392-9.965-.008-5.056-.662-9.987-8.392-10v.002zm0 17.144c-4.688-.023-4.923-2.464-4.955-7.143.032-4.7.267-7.157 4.954-7.177 4.688.02 4.925 2.476 4.957 7.176-.032 4.678-.27 7.12-4.956 7.144zm-13.872 2.108l-.2.052c-1.08.278-2.56.659-5.155.659h-.006c-7.155-.013-8.557-3.675-8.565-10 .006-7.251 2.272-9.952 8.352-9.962 2.147 0 3.627.283 4.688.544l-.006-5.843c-.008-.256.104-.592.7-.707L426.675 0h.104c.437.011.592.405.592.74v21.953c.029 1.389-.133 2.576-2.405 3.06v-.003zm-.89-15.897c-.634-.163-2.406-.57-4.4-.57-3.662.037-5.2 1.047-5.236 7.216.043 6.776 2.029 7.144 5.269 7.176v.144-.144c2.016 0 3.747-.427 4.365-.597V9.853h.001zm-17.071 16.149h-1.696c-.46 0-.8-.35-.8-.812V12.166c-.032-2.201-.683-2.816-3.02-2.848-2.643 0-5.32.676-6.201.919v14.955c0 .469-.32.811-.763.811h-1.736a.788.788 0 0 1-.8-.81V10.587c-.024-1.35.099-2.285 1.995-2.91 1.813-.634 5.28-1.174 7.576-1.175 4.368.006 6.232 1.608 6.24 5.353v13.341c0 .461-.344.81-.8.81l.005-.003zm-38.485.352c.98-.021 1.7-.215 1.984-.538a.502.502 0 0 0 .133-.376c-.007-.109-.007-.109-.272-1.382l-.008-.032c-.058-.332-.288-.484-.483-.484h-.03s-.244-.004-.487-.004c-.698-.023-1.275-.128-1.287-1.159V.738c0-.359-.214-.728-.624-.736h-.123l-1.904.496c-.323.032-.662.267-.646.7v21.248c.005 2.516 1.336 3.904 3.747 3.91v-.002zm-26.877-.352h-13.635a.788.788 0 0 1-.8-.812V23.5c-.008-.415.122-.596.374-.914l10.853-12.808H327.8a.79.79 0 0 1-.8-.813V7.768c0-.464.346-.811.8-.811h13.776c.453 0 .795.349.797.811v1.725c.008.312-.096.576-.344.854l-10.88 12.835h10.496c.454 0 .797.35.8.812v1.2a.79.79 0 0 1-.8.808h-.002z"/><path fill="#FF6900" d="M278.349 31.832c-1.157 0-1.8-.275-2.144-.475-.475-.279-1.35-.987-2.136-3.083-1.26-3.362-2.005-7.468-2.037-12.29v-.016c.032-4.832.778-8.936 2.037-12.3.784-2.094 1.659-2.804 2.139-3.08.34-.204.98-.476 2.136-.476.442 0 .96.04 1.562.138 3.497.576 7.37 1.972 11.504 4.356l.012.007c4.1 2.441 7.23 5.147 9.468 7.936 1.396 1.74 1.563 2.864 1.563 3.42 0 .557-.167 1.684-1.563 3.421-2.24 2.79-5.368 5.496-9.468 7.936l-.016.01c-4.128 2.384-8.003 3.78-11.5 4.355-.604.101-1.12.14-1.559.14"/></g><g fill="#37474F"><text font-family="Quicksand-Medium, Quicksand" font-size="30" font-weight="400" transform="translate(-1)"><tspan x="0" y="29.4">CitusPay</tspan></text><text font-family="Quicksand-Light, Quicksand" font-size="12" font-weight="300" transform="translate(-1)"><tspan x="0" y="45.3">Blockchain Business Solutions</tspan></text></g></g></svg>