<svg xmlns="http://www.w3.org/2000/svg" xmlns:xlink="http://www.w3.org/1999/xlink" width="472" height="152"><defs><path id="b" d="M15.07 16.663h2.472c1.153 0 1.84.769 1.812 1.867 0 .797-.357 1.51-1.016 1.785-.247.11-.604.138-.906.138H15.07v-3.79zm3.076-4.998c.494.274.741.824.741 1.455 0 .989-.576 1.675-1.565 1.675H15.07v-3.323h1.977c.44 0 .824.055 1.099.193zm-.494 10.682v1.923H16.36v-1.923h-1.346v1.923h-1.29v-1.923h-2.582V20.59h.796a.71.71 0 0 0 .714-.714v-7.772a.709.709 0 0 0-.714-.714h-.796V9.633h2.581V7.71h1.291v1.923h1.346V7.71h1.29v1.95c.66.027 1.181.11 1.703.33 1.154.439 1.95 1.51 1.95 2.938 0 1.208-.55 2.197-1.565 2.719 1.428.467 2.06 1.702 2.06 3.048-.028 1.73-1.182 2.993-2.555 3.433a5.31 5.31 0 0 1-1.592.22zm-14.72-6.37c0 7.194 5.85 13.044 13.044 13.044 7.195 0 13.045-5.85 13.045-13.045S23.17 2.932 15.976 2.932 2.932 8.782 2.932 15.976z"/><filter id="a" width="123%" height="123%" x="-11.5%" y="-11.5%" filterUnits="objectBoundingBox"><feOffset in="SourceAlpha" result="shadowOffsetOuter1"/><feGaussianBlur in="shadowOffsetOuter1" result="shadowBlurOuter1" stdDeviation="1"/><feColorMatrix in="shadowBlurOuter1" values="0 0 0 0 0 0 0 0 0 0 0 0 0 0 0 0 0 0 0.2 0"/></filter><path id="d" d="M32.07 16.663h2.472c1.153 0 1.84.769 1.812 1.867 0 .797-.357 1.51-1.016 1.785-.247.11-.604.138-.906.138H32.07v-3.79zm3.076-4.998c.494.274.741.824.741 1.455 0 .989-.576 1.675-1.565 1.675H32.07v-3.323h1.977c.44 0 .824.055 1.099.193zm-.494 10.682v1.923H33.36v-1.923h-1.346v1.923h-1.29v-1.923h-2.582V20.59h.796a.71.71 0 0 0 .714-.714v-7.772a.709.709 0 0 0-.714-.714h-.796V9.633h2.581V7.71h1.291v1.923h1.346V7.71h1.29v1.95c.66.027 1.181.11 1.703.33 1.154.439 1.95 1.51 1.95 2.938 0 1.208-.55 2.197-1.565 2.719 1.428.467 2.06 1.702 2.06 3.048-.028 1.73-1.182 2.993-2.555 3.433a5.31 5.31 0 0 1-1.592.22zm-14.72-6.37c0 7.194 5.85 13.044 13.044 13.044 7.195 0 13.045-5.85 13.045-13.045S40.17 2.932 32.976 2.932s-13.044 5.85-13.044 13.044z"/><filter id="c" width="123%" height="123%" x="-11.5%" y="-11.5%" filterUnits="objectBoundingBox"><feOffset in="SourceAlpha" result="shadowOffsetOuter1"/><feGaussianBlur in="shadowOffsetOuter1" result="shadowBlurOuter1" stdDeviation="1"/><feColorMatrix in="shadowBlurOuter1" values="0 0 0 0 0 0 0 0 0 0 0 0 0 0 0 0 0 0 0.2 0"/></filter><path id="f" d="M48.07 16.663h2.472c1.153 0 1.84.769 1.812 1.867 0 .797-.357 1.51-1.016 1.785-.247.11-.604.138-.906.138H48.07v-3.79zm3.076-4.998c.494.274.741.824.741 1.455 0 .989-.576 1.675-1.565 1.675H48.07v-3.323h1.977c.44 0 .824.055 1.099.193zm-.494 10.682v1.923H49.36v-1.923h-1.346v1.923h-1.29v-1.923h-2.582V20.59h.796a.71.71 0 0 0 .714-.714v-7.772a.709.709 0 0 0-.714-.714h-.796V9.633h2.581V7.71h1.291v1.923h1.346V7.71h1.29v1.95c.66.027 1.181.11 1.703.33 1.154.439 1.95 1.51 1.95 2.938 0 1.208-.55 2.197-1.565 2.719 1.428.467 2.06 1.702 2.06 3.048-.028 1.73-1.182 2.993-2.555 3.433a5.31 5.31 0 0 1-1.592.22zm-14.72-6.37c0 7.194 5.85 13.044 13.044 13.044 7.195 0 13.045-5.85 13.045-13.045S56.17 2.932 48.976 2.932s-13.044 5.85-13.044 13.044z"/><filter id="e" width="123%" height="123%" x="-11.5%" y="-11.5%" filterUnits="objectBoundingBox"><feOffset in="SourceAlpha" result="shadowOffsetOuter1"/><feGaussianBlur in="shadowOffsetOuter1" result="shadowBlurOuter1" stdDeviation="1"/><feColorMatrix in="shadowBlurOuter1" values="0 0 0 0 0 0 0 0 0 0 0 0 0 0 0 0 0 0 0.2 0"/></filter></defs><g fill="none" fill-rule="evenodd"><g fill="#6C84FA"><path fill-rule="nonzero" d="M5.66 20.377l.566-.566V133.02l-.566-.566h63.68l-.566.566V19.81l.566.566H5.66zm63.68-.566V133.02H5.66V19.81h63.68zm-45.283-7.075a1.415 1.415 0 1 0 0-2.83 1.415 1.415 0 0 0 0 2.83zM36.085 8.49a.708.708 0 1 0 0-1.416.708.708 0 0 0 0 1.416zm-6.368 3.537c0-.39.315-.707.703-.707h11.33c.388 0 .703.314.703.707a.706.706 0 0 1-.703.708H30.42a.703.703 0 0 1-.703-.708zm12.028 128.774a5.66 5.66 0 1 0-11.32 0 5.66 5.66 0 0 0 11.32 0zm-9.905 0a4.245 4.245 0 1 1 8.49 0 4.245 4.245 0 0 1-8.49 0zM2.83 138.68c0 5.465 4.441 9.905 9.914 9.905H60.84c5.483 0 9.914-4.43 9.914-9.905V11.32c0-5.465-4.442-9.905-9.914-9.905H12.744c-5.483 0-9.914 4.43-9.914 9.905v127.36zM12.744 0H60.84c6.258 0 11.33 5.077 11.33 11.32v127.36c0 6.252-5.06 11.32-11.329 11.32H12.744c-6.257 0-11.329-5.077-11.329-11.32V11.32C1.415 5.068 6.475 0 12.744 0zM0 20.505c0-.383.328-.694.708-.694h.707v5.66H.708A.697.697 0 0 1 0 24.779v-4.273zm0 12.75c0-.39.328-.708.708-.708h.707v11.32H.708A.714.714 0 0 1 0 43.16v-9.905zm0 14.151c0-.39.328-.708.708-.708h.707v11.32H.708A.714.714 0 0 1 0 57.312v-9.905z"/><g transform="translate(212 2)"><path fill-rule="nonzero" d="M226.154 1.73c4.779 0 8.654 3.879 8.654 8.66v122.297a8.658 8.658 0 0 1-8.657 8.66.577.577 0 1 0-.007 1.154c5.426-.001 9.818-4.394 9.818-9.814V10.39c0-5.418-4.392-9.813-9.808-9.813h-11.539a.577.577 0 1 0 0 1.154h11.539zM35.769.578c-5.416 0-9.807 4.395-9.807 9.813v122.297c0 5.42 4.392 9.813 9.81 9.813a.577.577 0 1 0 .007-1.154 8.66 8.66 0 0 1-8.664-8.66V10.39c0-4.781 3.875-8.66 8.654-8.66h11.539a.577.577 0 0 0 0-1.153H35.769z"/><path fill-rule="nonzero" d="M226.154 11.77l-.23 122.076-189-.23.23-122.078 189 .231zM36.692 133.845l189.462.23.23-122.538-189.46-.23-.232 122.538z"/><path d="M35.769.577h190.385v1.154H35.769z"/><circle cx="131.538" cy="6.923" r="1.154"/><path fill-rule="nonzero" d="M151.154 142.154l-.23-.23v1.73c0 .83-.67 1.5-1.505 1.5h-36.914a1.498 1.498 0 0 1-1.505-1.5v-1.73l-.23.23h40.384zm-40.616-.462v1.961a1.96 1.96 0 0 0 1.967 1.962h36.914a1.96 1.96 0 0 0 1.966-1.961v-1.962h-40.846z"/><path d="M2.308 141.346h255v1.154h-255zm33.461 7.5h190.385V150H35.769z"/><path fill-rule="nonzero" d="M1.246 141.346H.773l-.093.464a4.705 4.705 0 0 0-.053.366c-.142 1.244-.023 2.643.557 3.983.2.461.45.897.754 1.303.687.915 1.774 1.553 3.143 1.975.804.247 1.66.405 2.514.493a14.275 14.275 0 0 0 1.151.07h29.908v-1.154H8.746a11 11 0 0 1-1.033-.064 12.044 12.044 0 0 1-2.293-.448c-1.157-.356-2.042-.876-2.558-1.565a5.262 5.262 0 0 1-.62-1.069c-.487-1.127-.59-2.333-.469-3.393.016-.136.03-.228.039-.27l-.566.463h33.946v-1.154H1.246zm257.216 1.154l-.566-.464c.008.043.023.135.038.27.121 1.061.019 2.267-.47 3.394-.164.38-.37.738-.618 1.07-.516.688-1.401 1.208-2.558 1.564-.725.223-1.509.367-2.293.448a11 11 0 0 1-1.033.064h-29.424V150h29.424a14.275 14.275 0 0 0 1.151-.07 13.17 13.17 0 0 0 2.514-.493c1.369-.422 2.455-1.06 3.142-1.975.304-.406.555-.842.754-1.303.581-1.34.7-2.739.558-3.983a4.705 4.705 0 0 0-.054-.366l-.092-.464h-32.781v1.154h32.308z"/></g></g><g transform="rotate(15 -47.556 472.53)"><use fill="#000" filter="url(#a)" xlink:href="#b"/><use fill="#F28931" xlink:href="#b"/></g><g transform="rotate(15 -30.556 472.53)"><use fill="#000" filter="url(#c)" xlink:href="#d"/><use fill="#F28931" xlink:href="#d"/></g><g transform="rotate(15 -14.556 472.53)"><use fill="#000" filter="url(#e)" xlink:href="#f"/><use fill="#F28931" xlink:href="#f"/></g><path fill="#009FD3" fill-rule="nonzero" d="M216.016 71.5l-9-4.5v9l9-4.5zM88.5 72h119.516v-1H88v1h.5z"/></g></svg>