<svg xmlns="http://www.w3.org/2000/svg" width="126" height="150"><g fill="none"><path fill="#FF2C47" d="M29.935 29.69c0 64.879 14.405 88.163 46.066 109.036 31.663-20.873 46.07-44.157 46.07-109.039-18.484 0-28.357-17.706-46.066-24.205-17.711 6.497-27.585 24.207-46.07 24.207z"/><path d="M40.47 66.32l-.152-.151c-2.735-2.736-7.211-2.736-9.946 0-2.735 2.736-2.735 7.21 0 9.946l14.92 14.918.129.127.131.122.135.118.136.114.139.11.142.107.142.102.146.098.147.094.149.09.15.086.152.082.154.078.155.074.156.07v.002l.16.065.159.062.162.059.16.053v.001l.162.05.164.045.166.042.164.039.166.034.167.029v.001l.167.025.168.022.168.018v.001l.169.014.169.009v.001l.169.005.168.003.169-.003.17-.005.169-.01.167-.014.168-.019.17-.021.166-.026.167-.03.164-.034.167-.038.164-.042.164-.046.163-.05.162-.054.162-.06.159-.061.157-.065v-.001l.158-.07.155-.074.154-.078v-.001l.151-.081.152-.087.149-.09.146-.094.146-.098.142-.101.141-.107.139-.11.137-.114.134-.118.132-.122.13-.126v-.002l.145-.145-14.775-14.773c-2.687-2.687-2.728-7.047-.137-9.795zm54.686-24.862c-.047-.05-.089-.104-.137-.152-2.735-2.736-7.21-2.736-9.945 0L55.381 70.997l5.116 5.118 34.66-34.657z" fill="#FFF"/><path fill="#FF9600" d="M95.156 41.457L60.497 76.114l-5.117-5.117-5.117 5.117-9.794-9.795c-2.59 2.748-2.55 7.109.137 9.795L55.38 90.887 95.02 51.25c2.685-2.686 2.727-7.046.136-9.793z"/><g fill="#000003"><path d="M122.07 26.562c-9.753 0-17.156-5.708-24.993-11.751C88.072 7.869 77.867 0 62.695 0 47.524 0 37.318 7.869 28.313 14.811c-7.837 6.043-15.24 11.75-24.993 11.75a3.126 3.126 0 0 0-3.125 3.126c0 36.488 4.544 60.784 14.735 78.778 10.118 17.868 25.18 28.98 46.203 41.116a3.121 3.121 0 0 0 3.124 0c21.023-12.137 36.085-23.249 46.204-41.116 10.19-17.994 14.734-42.29 14.734-78.778 0-1.726-1.4-3.125-3.125-3.125zm-59.375 116.7C25 121.282 6.949 102.345 6.455 32.655 16.753 31.618 24.559 25.6 32.13 19.761c8.615-6.642 17.524-13.51 30.565-13.51 13.042 0 21.95 6.868 30.565 13.51 7.572 5.838 15.378 11.856 25.674 12.894-.493 69.69-18.544 88.626-56.239 110.607z"/><path d="M25.772 35.69a3.125 3.125 0 0 0-4.221-1.31c-.388.205-.782.406-1.177.6a3.126 3.126 0 0 0 2.76 5.608c.447-.22.89-.446 1.329-.677a3.126 3.126 0 0 0 1.31-4.221zm82.505 24.505a3.125 3.125 0 0 0 3.395-2.83c.036-.398.07-.8.104-1.198a3.125 3.125 0 1 0-6.227-.528c-.033.386-.067.774-.102 1.16a3.126 3.126 0 0 0 2.83 3.396zM31.949 34.608a3.11 3.11 0 0 0 1.826-.592c1.81-1.307 3.574-2.65 5.279-3.948 7.977-6.074 14.865-11.319 23.641-11.319a3.125 3.125 0 0 0 0-6.25c-10.885 0-18.92 6.118-27.427 12.596a256.687 256.687 0 0 1-5.151 3.854 3.125 3.125 0 0 0 1.832 5.659zm30.746 94.09c-7.997-4.93-17.657-11.552-24.9-20.091a3.125 3.125 0 0 0-4.767 4.042c8.321 9.812 19.36 17.117 28.046 22.385.016.01.033.016.049.025.075.043.152.081.23.118.05.024.1.05.15.071.07.03.142.051.214.075.06.02.12.043.181.059.065.017.132.028.198.04.066.014.133.03.2.039.095.012.19.015.286.019.037 0 .073.007.11.007h.006c.037 0 .073-.006.11-.007.096-.004.192-.007.286-.02.067-.008.132-.024.198-.037.067-.013.135-.023.2-.041.06-.016.12-.038.18-.058.072-.024.144-.046.215-.075.05-.021.1-.047.15-.071.078-.037.155-.075.23-.119.016-.009.033-.015.048-.025 8.687-5.268 19.725-12.573 28.046-22.384 9.489-11.192 15.47-26.337 18.284-46.301a3.125 3.125 0 1 0-6.189-.873c-2.644 18.76-8.16 32.868-16.862 43.132-7.241 8.538-16.9 15.16-24.899 20.09z"/><path d="M82.864 39.096l-32.6 32.6-7.736-7.738a10.089 10.089 0 0 0-7.183-2.966 10.09 10.09 0 0 0-7.184 2.967c-3.959 3.961-3.959 10.405.001 14.365l14.94 14.94.13.126.058.055.13.122.071.064.135.118.062.053.137.114.046.038.14.11c.025.021.05.041.077.06l.142.108.06.043.142.102.064.045.146.098.07.046.146.094.06.037.15.09.06.036.15.086c.028.017.058.033.088.049l.152.081.048.025.154.08.082.04.155.074.066.03.08.036c.055.027.112.052.17.075l.159.065.043.018.16.062.072.028.162.059.078.027.078.026c.053.02.107.037.162.054l.163.05.07.02.164.046.068.018.165.042.068.017.165.038.07.015.166.034.095.019.082.014a2.9 2.9 0 0 0 .148.026l.167.026.075.01.168.022.072.009.08.008c.052.006.104.013.158.017l.169.014.095.007.08.004c.051.004.104.007.156.009l.17.005h.05l.168.004h.09l.17-.003.05-.001.17-.005c.052-.002.105-.005.157-.01l.079-.003.097-.007.168-.014c.053-.004.104-.01.156-.017l.08-.008.069-.008.169-.022.078-.01.167-.026a3.19 3.19 0 0 0 .152-.028l.08-.014a1.39 1.39 0 0 0 .093-.018l.165-.034.064-.014.167-.038.079-.019.164-.042a.671.671 0 0 0 .064-.018l.164-.045a2.05 2.05 0 0 0 .068-.02l.162-.05c.052-.015.103-.032.153-.05l.08-.027.086-.03.162-.059c.025-.009.05-.018.073-.028l.16-.062.052-.021.158-.065c.05-.02.1-.043.15-.066l.08-.036.08-.037.154-.074.063-.03.153-.078c.05-.025.1-.051.147-.079l.08-.042.067-.038.151-.086.072-.043.149-.09.07-.043.146-.094a1.17 1.17 0 0 0 .049-.033l.146-.098.075-.051.142-.102c.025-.018.05-.035.073-.053l.14-.107.052-.04.139-.11c.036-.028.072-.059.108-.089l.078-.065c.028-.022.056-.045.082-.07l.134-.117.051-.047.132-.122.058-.054.13-.126a2.8 2.8 0 0 0 .082-.084l39.734-39.733c3.96-3.961 3.959-10.405-.002-14.364a10.086 10.086 0 0 0-7.182-2.966c-2.72 0-5.27 1.053-7.184 2.967zm9.946 9.945L53.026 88.823l-.02.02-.29.259a.099.099 0 0 1-.01.008l-.372.264-.528.273-.005.002-.35.128-.01.004-.54.126a.28.28 0 0 0-.02.004l-.27.032-.02.003-.153.009h-.02l-.155.004-.098-.001-.055-.002-.02-.001-.156-.01-.018-.001-.27-.033c-.007 0-.014-.003-.022-.004l-.538-.126h-.003l-.307-.111-.587-.3-.54-.406-15.067-15.06a3.915 3.915 0 0 1 0-5.526 3.879 3.879 0 0 1 2.764-1.136 3.88 3.88 0 0 1 2.763 1.135l9.945 9.947a3.124 3.124 0 0 0 4.42 0l34.81-34.81a3.877 3.877 0 0 1 2.762-1.135c1.05 0 2.03.403 2.764 1.136a3.913 3.913 0 0 1 0 5.526z"/></g></g></svg>