<svg xmlns="http://www.w3.org/2000/svg" width="186" height="186"><defs><linearGradient id="a" x1="102.95%" x2="2.948%" y1="2.95%" y2="102.949%"><stop offset="0%" stop-color="#ECF5FC" stop-opacity="0"/><stop offset="28.197%" stop-color="#ECF5FC" stop-opacity=".5"/><stop offset="66.763%" stop-color="#ECF5FC" stop-opacity=".8"/><stop offset="100%" stop-color="#ECF5FC"/></linearGradient></defs><path d="M140.975 172.381l31.405-31.405a92.432 92.432 0 0 0 6.087-11.917l-49.408 49.409a92.42 92.42 0 0 0 11.916-6.087zm-21.418 9.493l62.316-62.316a92.248 92.248 0 0 0 1.965-7.795l-72.076 72.077a92.733 92.733 0 0 0 7.795-1.966zm-15.084 3.158l80.559-80.559c.261-2.111.45-4.243.566-6.396l-87.521 87.52a92.91 92.91 0 0 0 6.396-.565zm-12.618.691l93.867-93.867a94.238 94.238 0 0 0-.23-5.598l-99.235 99.233c1.852.134 3.719.209 5.598.232zm-11.128-.796l104.199-104.2a91.172 91.172 0 0 0-.807-5.022L75.704 184.119c1.659.314 3.333.585 5.023.808zm-10.03-1.898L183.029 70.698a92.378 92.378 0 0 0-1.256-4.575L66.123 181.774a91.25 91.25 0 0 0 4.574 1.255zm-9.154-2.77L180.258 61.543a93.22 93.22 0 0 0-1.631-4.198L57.345 178.627a92.051 92.051 0 0 0 4.198 1.632zm-8.413-3.513L176.745 53.13a92.827 92.827 0 0 0-1.96-3.869L49.26 174.785a93.51 93.51 0 0 0 3.87 1.961zm-7.758-4.167L172.577 45.372a89.826 89.826 0 0 0-2.257-3.572L41.799 170.321a93.461 93.461 0 0 0 3.573 2.258zm-7.163-4.765L167.814 38.209a95.33 95.33 0 0 0-2.534-3.295L34.913 165.281a93.178 93.178 0 0 0 3.296 2.533zm-6.602-5.323L162.491 31.608a94.404 94.404 0 0 0-2.8-3.029L28.577 159.691a93.298 93.298 0 0 0 3.03 2.8zm-6.06-5.866L156.625 25.548a94.341 94.341 0 0 0-3.062-2.768L22.779 153.563a93.412 93.412 0 0 0 2.768 3.062zm-5.522-6.404L150.221 20.026a94.179 94.179 0 0 0-3.334-2.496L17.53 146.887a95.714 95.714 0 0 0 2.495 3.334zm-4.962-6.963L143.257 15.064a91.629 91.629 0 0 0-3.613-2.217L12.846 139.645a93.597 93.597 0 0 0 2.217 3.613zm-4.381-7.544L135.714 10.682a92.52 92.52 0 0 0-3.912-1.918L8.764 131.802a90.744 90.744 0 0 0 1.918 3.912zm-3.755-8.172L127.542 6.927a92.115 92.115 0 0 0-4.245-1.585L5.342 123.297a90.548 90.548 0 0 0 1.585 4.245zm-3.051-8.875L118.668 3.876a92.846 92.846 0 0 0-4.627-1.203L2.674 114.04a92.274 92.274 0 0 0 1.202 4.627zm-2.226-9.699L108.967 1.651a90.612 90.612 0 0 0-5.094-.735L.914 103.874c.201 1.712.444 3.411.736 5.094zM.277 93.007c0 1.765.053 3.516.15 5.256L98.263.429a93.455 93.455 0 0 0-5.258-.152c-.142 0-.283.005-.426.007L.282 92.58c-.001.143-.005.284-.005.427zm.246-6.765L86.242.524c-2.202.158-4.38.398-6.537.707L1.23 79.706a94.818 94.818 0 0 0-.707 6.536zm2.094-14.018L72.223 2.617a92.529 92.529 0 0 0-8.075 2.246L4.863 64.148a91.507 91.507 0 0 0-2.246 8.076zm13.926-31.682a92.645 92.645 0 0 0-7.725 13.554L54.095 8.818a92.645 92.645 0 0 0-13.554 7.725L16.543 40.542z" fill="url(#a)"/></svg>