<svg xmlns="http://www.w3.org/2000/svg" xmlns:xlink="http://www.w3.org/1999/xlink" width="616" height="418"><defs><path id="b" d="M32.244 0h345.383c17.809 0 32.245 14.412 32.245 32.19V575.2c0 17.778-14.436 32.191-32.245 32.191H32.244C14.436 607.391 0 592.978 0 575.2V32.19C0 14.413 14.436 0 32.244 0z"/><filter id="a" width="102.9%" height="102%" x="-1.5%" y="-1%" filterUnits="objectBoundingBox"><feOffset in="SourceAlpha" result="shadowOffsetOuter1"/><feGaussianBlur in="shadowOffsetOuter1" result="shadowBlurOuter1" stdDeviation="2"/><feColorMatrix in="shadowBlurOuter1" values="0 0 0 0 0.878431373 0 0 0 0 0.878431373 0 0 0 0 0.878431373 0 0 0 1 0"/></filter><path id="c" d="M200.85 560.344c8.319 0 15.062 6.739 15.062 15.05 0 8.312-6.743 15.05-15.061 15.05s-15.061-6.738-15.061-15.05c0-8.311 6.743-15.05 15.06-15.05z"/><filter id="d" width="302.5%" height="302.7%" x="-101.3%" y="-101.3%" filterUnits="objectBoundingBox"><feGaussianBlur in="SourceAlpha" result="shadowBlurInner1" stdDeviation="17.5"/><feOffset dy="26" in="shadowBlurInner1" result="shadowOffsetInner1"/><feComposite in="shadowOffsetInner1" in2="SourceAlpha" k2="-1" k3="1" operator="arithmetic" result="shadowInnerInner1"/><feColorMatrix in="shadowInnerInner1" values="0 0 0 0 0 0 0 0 0 0 0 0 0 0 0 0 0 0 0.04 0"/></filter><path id="e" d="M0 0h363.504v484.917H0z"/><path id="f" d="M8.672 4.656a4.05 4.05 0 0 1-4.053 4.047A4.05 4.05 0 0 1 .566 4.656 4.05 4.05 0 0 1 4.62.609a4.05 4.05 0 0 1 4.053 4.047z"/><filter id="g" width="433.1%" height="433.6%" x="-166.6%" y="-166.8%" filterUnits="objectBoundingBox"><feGaussianBlur in="SourceAlpha" result="shadowBlurInner1" stdDeviation="12"/><feOffset dy="3" in="shadowBlurInner1" result="shadowOffsetInner1"/><feComposite in="shadowOffsetInner1" in2="SourceAlpha" k2="-1" k3="1" operator="arithmetic" result="shadowInnerInner1"/><feColorMatrix in="shadowInnerInner1" values="0 0 0 0 0 0 0 0 0 0 0 0 0 0 0 0 0 0 0.07 0"/></filter></defs><g fill="none" fill-rule="evenodd"><g transform="rotate(-90 209 205)"><use fill="#000" filter="url(#a)" xlink:href="#b"/><use fill="#FFF" xlink:href="#b"/><use fill="#FFF" xlink:href="#c"/><use fill="#000" filter="url(#d)" xlink:href="#c"/><use fill="#F7F7F7" xlink:href="#e" transform="translate(19.629 58.867)"/><g transform="translate(196.23 26.49)"><use fill="#FFF" xlink:href="#f"/><use fill="#000" filter="url(#g)" xlink:href="#f"/></g></g><text fill="#37474F" font-family="CourierNewPSMT, Courier New" font-size="12" transform="translate(4 4)"><tspan x="88" y="70">// Require the Stripe library with a test secret key.</tspan> <tspan x="88" y="86">const stripe = require(&apos;stripe&apos;)</tspan> <tspan x="88" y="102">(&apos;sk_test_BQokikJOvBiI2HlWgH4olfQ2&apos;);</tspan> <tspan x="88" y="134">// Create a payment from a test card token.</tspan> <tspan x="88" y="150">const charge = await stripe.charges.create({</tspan> <tspan x="88" y="166"> amount: 2000,</tspan> <tspan x="88" y="182"> currency: &apos;usd&apos;,</tspan> <tspan x="88" y="198"> source: &apos;tok_mastercard&apos;,</tspan> <tspan x="88" y="214"> description: &apos;My first payment&apos;</tspan> <tspan x="88" y="230">});</tspan> <tspan x="88" y="262">// Click “</tspan> <tspan x="160.012" y="262" font-family="LucidaGrande, Lucida Grande">▶</tspan> <tspan x="170.57" y="262"> run” to try this code live and create your </tspan> <tspan x="88" y="278">first payment.</tspan></text></g></svg>