<svg xmlns="http://www.w3.org/2000/svg" width="56" height="56"><defs><linearGradient id="a" x1="50%" x2="50%" y1="0%" y2="100%"><stop offset="0%" stop-color="#0091E6"/><stop offset="100%" stop-color="#0079BF"/></linearGradient></defs><path fill="url(#a)" d="M682 0h36c5.523 0 10 4.477 10 10v36c0 5.523-4.477 10-10 10h-36c-5.523 0-10-4.477-10-10V10c0-5.523 4.477-10 10-10zm30.18 7.28a8.54 8.54 0 0 0-8.54 8.54v7.42a8.54 8.54 0 1 0 17.08 0v-7.42a8.54 8.54 0 0 0-8.54-8.54zm-24.36 0a8.54 8.54 0 0 0-8.54 8.54v21.42a8.54 8.54 0 1 0 17.08 0V15.82a8.54 8.54 0 0 0-8.54-8.54z" transform="translate(-672)"/></svg>